<svg id="svg" version="1.1" xmlns="http://www.w3.org/2000/svg" xmlns:xlink="http://www.w3.org/1999/xlink" width="400" height="87.25817211474316" viewBox="0, 0, 400,87.25817211474316"><g id="svgg"><path id="path0" d="M64.249 4.502 C 64.193 4.593,63.551 4.667,62.823 4.667 C 62.096 4.667,61.500 4.733,61.500 4.813 C 61.500 4.894,60.712 5.014,59.750 5.079 C 58.788 5.145,58.000 5.267,58.000 5.349 C 58.000 5.432,57.719 5.502,57.375 5.504 C 57.031 5.506,56.450 5.588,56.083 5.686 C 55.717 5.784,55.173 5.903,54.875 5.950 C 54.577 5.998,54.333 6.095,54.333 6.166 C 54.333 6.237,53.902 6.348,53.375 6.414 C 52.848 6.479,52.342 6.590,52.250 6.662 C 52.158 6.733,51.729 6.843,51.296 6.905 C 50.862 6.968,50.464 7.090,50.411 7.176 C 50.357 7.263,50.131 7.333,49.907 7.333 C 49.683 7.333,49.500 7.400,49.500 7.481 C 49.500 7.562,49.163 7.679,48.750 7.741 C 48.337 7.803,48.000 7.924,48.000 8.010 C 48.000 8.096,47.869 8.167,47.708 8.168 C 47.548 8.168,47.202 8.281,46.939 8.418 C 46.677 8.555,46.358 8.667,46.231 8.667 C 46.104 8.667,46.000 8.735,46.000 8.819 C 46.000 8.902,45.700 9.021,45.333 9.083 C 44.967 9.145,44.667 9.258,44.667 9.335 C 44.667 9.411,44.443 9.523,44.169 9.583 C 43.895 9.643,43.628 9.762,43.575 9.846 C 43.523 9.931,43.335 10.000,43.157 10.000 C 42.979 10.000,42.833 10.069,42.833 10.153 C 42.833 10.238,42.608 10.356,42.333 10.417 C 42.058 10.477,41.833 10.596,41.833 10.680 C 41.833 10.764,41.714 10.833,41.567 10.833 C 41.273 10.833,40.282 11.345,40.194 11.542 C 40.164 11.610,40.038 11.667,39.915 11.667 C 39.791 11.667,39.590 11.760,39.468 11.875 C 39.345 11.990,38.946 12.233,38.581 12.416 C 38.216 12.599,37.818 12.843,37.696 12.958 C 37.575 13.073,37.369 13.167,37.238 13.167 C 37.107 13.167,37.000 13.233,37.000 13.314 C 37.000 13.395,36.869 13.505,36.708 13.559 C 36.415 13.657,35.822 14.007,35.667 14.172 C 35.621 14.221,35.190 14.510,34.708 14.815 C 34.227 15.119,33.833 15.427,33.833 15.499 C 33.833 15.571,33.646 15.678,33.417 15.735 C 33.188 15.793,33.000 15.913,33.000 16.003 C 33.000 16.093,32.901 16.167,32.779 16.167 C 32.658 16.167,32.382 16.354,32.167 16.583 C 31.951 16.813,31.695 17.002,31.596 17.005 C 31.497 17.007,31.198 17.232,30.931 17.505 C 30.663 17.777,30.385 18.000,30.311 18.000 C 30.238 18.000,29.964 18.206,29.702 18.458 C 29.440 18.710,28.969 19.124,28.655 19.378 C 26.814 20.865,22.000 25.517,22.000 25.809 C 22.000 25.893,21.700 26.261,21.333 26.627 C 20.967 26.994,20.667 27.351,20.667 27.421 C 20.667 27.490,20.442 27.762,20.167 28.025 C 19.892 28.288,19.667 28.562,19.667 28.633 C 19.667 28.705,19.404 29.042,19.083 29.382 C 18.763 29.722,18.500 30.064,18.500 30.141 C 18.500 30.218,18.350 30.417,18.167 30.583 C 17.983 30.749,17.833 30.980,17.833 31.095 C 17.833 31.211,17.777 31.331,17.708 31.361 C 17.545 31.433,16.667 32.611,16.667 32.757 C 16.667 32.818,16.442 33.153,16.167 33.500 C 15.892 33.847,15.667 34.214,15.667 34.316 C 15.667 34.417,15.592 34.500,15.500 34.500 C 15.408 34.500,15.333 34.607,15.333 34.738 C 15.333 34.869,15.240 35.076,15.125 35.197 C 14.872 35.466,14.282 36.487,13.795 37.500 C 13.597 37.912,13.384 38.287,13.322 38.333 C 13.172 38.444,12.500 39.934,12.500 40.158 C 12.500 40.254,12.425 40.333,12.333 40.333 C 12.242 40.333,12.167 40.483,12.167 40.667 C 12.167 40.850,12.098 41.000,12.013 41.000 C 11.929 41.000,11.810 41.225,11.750 41.500 C 11.690 41.775,11.577 42.000,11.500 42.000 C 11.423 42.000,11.311 42.224,11.250 42.498 C 11.190 42.772,11.072 43.039,10.987 43.091 C 10.903 43.144,10.833 43.332,10.833 43.510 C 10.833 43.688,10.765 43.833,10.681 43.833 C 10.598 43.833,10.479 44.133,10.417 44.500 C 10.355 44.867,10.237 45.167,10.154 45.167 C 10.071 45.167,9.956 45.467,9.897 45.833 C 9.839 46.200,9.725 46.500,9.645 46.500 C 9.565 46.500,9.500 46.688,9.500 46.917 C 9.500 47.146,9.428 47.333,9.339 47.333 C 9.251 47.333,9.128 47.708,9.068 48.167 C 9.007 48.625,8.899 49.000,8.828 49.000 C 8.756 49.000,8.646 49.375,8.583 49.833 C 8.520 50.291,8.401 50.708,8.318 50.760 C 8.235 50.811,8.167 51.032,8.167 51.250 C 8.167 51.468,8.097 51.690,8.012 51.743 C 7.926 51.795,7.805 52.251,7.742 52.755 C 7.679 53.259,7.568 53.708,7.495 53.753 C 7.421 53.799,7.309 54.399,7.244 55.087 C 7.180 55.775,7.061 56.379,6.980 56.429 C 6.899 56.479,6.833 56.838,6.833 57.227 C 6.833 57.615,6.762 58.005,6.676 58.092 C 6.589 58.179,6.465 59.321,6.401 60.631 C 6.336 61.940,6.219 63.051,6.142 63.099 C 6.064 63.147,6.000 66.407,6.000 70.343 L 6.000 77.500 13.917 77.500 C 21.395 77.500,21.833 77.516,21.833 77.797 C 21.833 77.960,21.979 78.198,22.158 78.327 C 22.336 78.455,22.437 78.634,22.382 78.723 C 22.327 78.812,22.357 78.838,22.449 78.782 C 22.541 78.725,22.776 78.827,22.972 79.009 C 23.167 79.191,23.367 79.333,23.416 79.324 C 23.676 79.277,24.500 79.548,24.500 79.680 C 24.500 79.764,24.646 79.833,24.823 79.833 C 25.001 79.833,25.190 79.903,25.243 79.988 C 25.295 80.074,25.750 80.195,26.253 80.258 C 26.755 80.320,27.167 80.432,27.167 80.506 C 27.167 80.580,27.655 80.692,28.252 80.756 C 28.849 80.820,29.379 80.939,29.429 81.020 C 29.479 81.101,29.820 81.167,30.187 81.167 C 30.555 81.167,30.983 81.235,31.140 81.319 C 31.297 81.403,31.948 81.524,32.587 81.588 C 33.227 81.651,33.825 81.762,33.917 81.833 C 34.008 81.905,34.946 82.017,36.000 82.083 C 37.054 82.149,38.022 82.289,38.151 82.393 C 38.279 82.498,38.411 82.565,38.442 82.542 C 38.624 82.410,40.672 82.524,40.587 82.660 C 40.532 82.750,40.694 82.814,40.952 82.805 C 42.029 82.767,46.833 83.061,46.833 83.165 C 46.833 83.307,46.427 83.286,51.965 83.431 C 54.559 83.498,56.719 83.616,56.765 83.692 C 56.812 83.767,62.888 83.829,70.267 83.829 C 79.887 83.829,83.652 83.778,83.572 83.648 C 83.495 83.523,83.570 83.526,83.813 83.656 C 84.008 83.760,84.167 83.777,84.167 83.694 C 84.167 83.612,86.023 83.489,88.292 83.422 C 90.560 83.355,92.492 83.242,92.583 83.171 C 92.726 83.062,97.001 82.797,98.370 82.814 C 98.619 82.817,98.867 82.747,98.921 82.660 C 98.975 82.572,99.578 82.500,100.260 82.500 C 100.942 82.500,101.500 82.436,101.500 82.358 C 101.500 82.280,102.415 82.165,103.532 82.102 C 104.650 82.039,105.644 81.922,105.741 81.844 C 105.838 81.765,106.574 81.646,107.377 81.580 C 108.181 81.514,108.879 81.394,108.929 81.313 C 108.979 81.233,109.315 81.167,109.677 81.167 C 110.038 81.167,110.333 81.102,110.333 81.024 C 110.333 80.945,110.799 80.832,111.368 80.773 C 111.937 80.713,112.477 80.590,112.568 80.499 C 112.659 80.408,112.976 80.333,113.273 80.333 C 113.571 80.333,113.861 80.257,113.918 80.164 C 113.976 80.071,114.088 80.035,114.167 80.084 C 114.247 80.133,114.581 80.022,114.911 79.837 C 115.241 79.651,115.653 79.500,115.826 79.500 C 116.000 79.500,116.242 79.402,116.363 79.282 C 116.570 79.078,117.184 78.785,117.304 78.834 C 117.448 78.891,118.000 78.079,118.000 77.809 C 118.000 77.517,118.359 77.501,125.875 77.460 L 133.750 77.417 133.794 71.792 C 133.818 68.698,133.774 66.167,133.695 66.167 C 133.616 66.167,133.506 64.729,133.450 62.973 C 133.394 61.216,133.280 59.735,133.196 59.681 C 133.112 59.627,132.989 58.852,132.923 57.959 C 132.856 57.065,132.734 56.292,132.651 56.240 C 132.568 56.189,132.500 55.851,132.500 55.490 C 132.500 55.129,132.433 54.833,132.350 54.833 C 132.268 54.833,132.148 54.308,132.083 53.667 C 132.019 53.025,131.904 52.500,131.828 52.500 C 131.753 52.500,131.639 52.087,131.576 51.581 C 131.513 51.076,131.395 50.621,131.314 50.571 C 131.233 50.521,131.167 50.260,131.167 49.990 C 131.167 49.721,131.099 49.500,131.016 49.500 C 130.933 49.500,130.813 49.125,130.750 48.667 C 130.687 48.208,130.567 47.833,130.484 47.833 C 130.401 47.833,130.333 47.676,130.333 47.484 C 130.333 47.291,130.230 46.897,130.103 46.609 C 129.976 46.320,129.751 45.809,129.603 45.475 C 129.455 45.140,129.333 44.709,129.333 44.516 C 129.333 44.324,129.266 44.167,129.185 44.167 C 129.103 44.167,128.986 43.960,128.925 43.708 C 128.773 43.076,128.441 42.333,128.311 42.333 C 128.252 42.333,128.155 42.071,128.094 41.750 C 128.034 41.429,127.929 41.167,127.860 41.167 C 127.792 41.167,127.595 40.754,127.424 40.250 C 127.253 39.746,127.068 39.332,127.015 39.330 C 126.961 39.328,126.729 38.917,126.500 38.417 C 126.271 37.916,126.027 37.505,125.958 37.503 C 125.890 37.502,125.833 37.387,125.833 37.250 C 125.833 37.112,125.766 37.000,125.685 37.000 C 125.603 37.000,125.493 36.830,125.441 36.622 C 125.389 36.414,125.212 36.094,125.048 35.912 C 124.884 35.729,124.535 35.144,124.273 34.611 C 124.010 34.078,123.691 33.602,123.564 33.553 C 123.437 33.504,123.333 33.365,123.333 33.244 C 123.333 33.123,123.240 32.922,123.125 32.797 C 122.880 32.529,122.545 32.018,122.383 31.667 C 122.320 31.529,122.189 31.332,122.093 31.229 C 121.996 31.125,121.804 30.872,121.667 30.667 C 121.529 30.461,121.323 30.195,121.208 30.075 C 121.094 29.955,121.000 29.809,121.000 29.749 C 121.000 29.690,120.775 29.416,120.500 29.141 C 120.225 28.866,120.000 28.567,120.000 28.476 C 120.000 28.385,119.748 28.072,119.440 27.780 C 119.132 27.489,118.828 27.085,118.765 26.884 C 118.701 26.682,118.522 26.476,118.366 26.425 C 118.211 26.375,117.896 26.056,117.667 25.717 C 117.214 25.048,113.060 20.844,112.182 20.167 C 111.623 19.736,111.571 19.693,110.244 18.583 C 109.806 18.217,109.291 17.809,109.099 17.677 C 108.907 17.545,108.690 17.339,108.617 17.218 C 108.543 17.098,108.409 17.000,108.317 17.000 C 108.226 17.000,107.964 16.813,107.735 16.583 C 107.506 16.354,107.209 16.167,107.076 16.167 C 106.942 16.167,106.833 16.104,106.833 16.028 C 106.833 15.952,106.440 15.636,105.958 15.326 C 105.477 15.017,104.984 14.666,104.863 14.548 C 104.742 14.430,104.536 14.333,104.405 14.333 C 104.274 14.333,104.167 14.258,104.167 14.167 C 104.167 14.075,104.054 14.000,103.917 14.000 C 103.779 14.000,103.667 13.926,103.667 13.837 C 103.667 13.747,103.479 13.626,103.250 13.568 C 103.021 13.511,102.833 13.403,102.833 13.329 C 102.833 13.254,102.608 13.144,102.333 13.083 C 102.058 13.023,101.833 12.904,101.833 12.820 C 101.833 12.736,101.721 12.667,101.583 12.667 C 101.446 12.667,101.333 12.606,101.333 12.531 C 101.333 12.392,99.794 11.667,99.498 11.667 C 99.408 11.667,99.333 11.608,99.333 11.537 C 99.333 11.466,98.997 11.260,98.585 11.079 C 98.173 10.898,97.836 10.702,97.835 10.644 C 97.834 10.585,97.571 10.488,97.250 10.428 C 96.929 10.367,96.667 10.259,96.667 10.186 C 96.667 10.114,96.254 9.914,95.750 9.743 C 95.246 9.571,94.833 9.375,94.833 9.306 C 94.833 9.238,94.552 9.130,94.208 9.067 C 93.865 9.004,93.546 8.906,93.500 8.851 C 93.301 8.609,92.630 8.331,92.007 8.232 C 91.637 8.173,91.333 8.062,91.333 7.986 C 91.333 7.910,91.052 7.802,90.708 7.746 C 90.365 7.689,89.933 7.577,89.750 7.496 C 89.104 7.213,87.818 6.833,87.504 6.833 C 87.329 6.833,87.145 6.766,87.093 6.683 C 87.042 6.600,86.550 6.481,86.000 6.417 C 85.450 6.353,84.958 6.233,84.907 6.150 C 84.855 6.068,84.556 6.000,84.240 6.000 C 83.925 6.000,83.667 5.931,83.667 5.848 C 83.667 5.764,83.104 5.642,82.417 5.578 C 81.729 5.514,81.167 5.403,81.167 5.332 C 81.167 5.261,80.342 5.149,79.333 5.083 C 78.325 5.017,77.500 4.903,77.500 4.829 C 77.500 4.489,64.456 4.167,64.249 4.502 M72.852 21.375 C 77.644 23.783,81.189 27.206,83.135 31.302 C 83.705 32.503,83.739 32.539,83.968 32.193 C 84.268 31.742,84.561 31.736,84.855 32.175 C 85.079 32.510,85.107 32.511,86.250 32.244 C 88.017 31.832,90.258 31.963,91.750 32.565 C 97.490 34.881,104.115 38.995,105.552 41.133 C 106.150 42.024,106.124 41.586,106.249 52.667 L 106.352 61.750 106.826 62.167 C 107.943 63.149,107.832 64.980,106.637 65.293 C 106.307 65.379,106.296 65.459,106.395 67.067 C 106.663 71.394,106.542 74.750,106.098 75.294 C 104.875 76.792,105.494 76.686,95.583 77.084 C 94.483 77.128,90.808 77.278,87.417 77.418 C 84.025 77.557,80.313 77.702,79.167 77.740 C 78.021 77.777,74.083 77.932,70.417 78.084 C 66.750 78.236,63.000 78.389,62.083 78.425 C 61.167 78.461,57.642 78.606,54.250 78.746 C 35.981 79.502,37.184 79.518,36.167 78.500 C 35.217 77.550,35.173 77.372,34.836 73.167 C 34.572 69.874,34.339 68.692,33.792 67.881 C 33.116 66.880,33.021 66.026,33.497 65.254 C 33.856 64.673,33.862 64.599,33.666 63.035 C 33.454 61.346,33.348 60.411,32.989 57.083 L 32.773 55.083 32.095 54.477 C 31.457 53.907,31.417 53.817,31.427 52.977 C 31.447 51.252,32.039 50.678,36.796 47.769 C 39.839 45.908,44.102 44.164,47.250 43.493 C 48.857 43.150,53.416 42.009,56.000 41.303 C 58.647 40.579,58.956 40.496,59.687 40.315 C 60.234 40.179,60.302 40.099,60.404 39.461 C 60.737 37.378,62.609 34.814,67.500 29.745 C 70.861 26.261,72.279 22.755,70.889 21.366 C 70.602 21.078,70.601 20.500,70.889 20.500 C 71.011 20.500,71.894 20.894,72.852 21.375 " stroke="none" fill="#aef1fa" fill-rule="evenodd"></path><path id="path1" d="M70.680 20.946 C 70.673 21.054,70.786 21.263,70.933 21.409 C 71.124 21.600,71.201 22.004,71.206 22.851 C 71.210 23.498,71.270 23.935,71.340 23.822 C 71.525 23.523,71.723 26.002,71.583 26.856 C 71.311 28.507,70.772 29.268,67.767 32.250 C 63.417 36.566,62.678 37.679,62.536 40.135 C 62.403 42.432,63.588 42.673,63.962 40.426 C 64.365 38.002,64.879 37.246,68.671 33.500 C 72.472 29.746,73.154 28.546,73.173 25.583 L 73.181 24.250 73.421 24.917 C 74.596 28.184,74.013 31.453,71.812 33.935 C 69.314 36.754,69.271 36.854,69.197 40.054 C 69.127 43.109,69.182 43.456,69.755 43.599 C 70.592 43.810,70.685 43.517,70.632 40.849 C 70.575 37.985,70.787 37.360,72.423 35.583 C 74.927 32.863,75.417 31.681,75.417 28.365 C 75.417 26.961,75.458 25.949,75.509 26.115 C 75.560 26.281,75.876 26.987,76.211 27.684 C 77.757 30.896,78.287 34.947,77.458 37.214 C 76.847 38.886,77.240 40.833,78.189 40.833 C 78.793 40.833,79.139 40.238,78.850 39.699 C 78.590 39.212,78.628 38.590,79.000 37.250 C 79.845 34.203,79.312 30.566,77.452 26.694 C 76.676 25.079,76.164 24.678,75.665 25.294 C 75.310 25.732,75.102 25.554,74.930 24.667 C 74.640 23.168,73.755 22.375,73.165 23.085 C 72.969 23.321,72.906 23.258,72.637 22.552 C 72.116 21.184,72.112 21.159,72.447 21.263 C 72.618 21.315,72.575 21.252,72.351 21.118 C 72.079 20.955,71.776 20.919,71.400 21.004 C 71.038 21.085,70.822 21.063,70.771 20.939 C 70.715 20.803,70.689 20.805,70.680 20.946 M79.417 26.167 C 79.868 26.625,80.275 27.000,80.321 27.000 C 80.367 27.000,80.035 26.625,79.583 26.167 C 79.132 25.708,78.725 25.333,78.679 25.333 C 78.633 25.333,78.965 25.708,79.417 26.167 M68.491 28.792 L 67.917 29.417 68.542 28.842 C 68.885 28.526,69.167 28.245,69.167 28.217 C 69.167 28.090,69.026 28.210,68.491 28.792 M65.994 31.292 L 65.083 32.250 66.042 31.339 C 66.932 30.493,67.076 30.333,66.953 30.333 C 66.927 30.333,66.495 30.765,65.994 31.292 M86.203 32.234 C 85.149 32.498,85.051 32.577,85.344 32.930 C 85.965 33.678,85.674 37.239,84.842 39.064 C 81.925 45.468,67.367 48.040,60.878 43.297 C 59.481 42.277,59.249 41.633,59.977 40.797 C 60.314 40.411,60.482 40.005,60.548 39.417 L 60.643 38.583 60.462 39.333 C 60.237 40.268,60.353 40.164,59.216 40.448 C 58.685 40.580,58.025 40.750,57.750 40.825 C 57.475 40.900,56.688 41.115,56.000 41.303 C 53.416 42.009,48.857 43.150,47.250 43.493 C 44.102 44.164,39.839 45.908,36.796 47.769 C 32.039 50.678,31.447 51.252,31.427 52.977 C 31.416 53.934,32.256 54.991,33.208 55.217 C 33.414 55.266,33.918 55.430,34.327 55.581 C 35.277 55.932,36.626 56.307,38.000 56.602 C 38.596 56.729,39.383 56.902,39.750 56.986 C 47.032 58.646,47.191 58.644,50.250 56.833 C 53.049 55.177,56.863 54.640,59.750 55.497 C 60.117 55.606,60.679 55.762,61.000 55.844 C 61.321 55.926,62.408 56.209,63.417 56.474 C 66.941 57.398,69.386 57.833,71.049 57.833 C 73.908 57.833,76.653 56.713,79.391 54.430 C 81.394 52.761,82.321 52.439,85.167 52.426 C 87.817 52.414,88.249 52.603,90.034 54.555 C 93.094 57.900,94.283 57.923,95.872 54.667 C 97.156 52.033,98.918 49.633,100.614 48.202 C 102.906 46.269,103.387 45.797,105.486 43.425 C 107.154 41.539,103.650 38.300,95.750 34.426 C 90.753 31.975,88.922 31.555,86.203 32.234 M64.491 32.958 L 63.917 33.583 64.542 33.009 C 64.885 32.693,65.167 32.412,65.167 32.384 C 65.167 32.257,65.026 32.377,64.491 32.958 M103.917 61.601 C 103.506 61.700,102.201 62.142,101.750 62.335 C 101.567 62.413,101.154 62.588,100.833 62.723 C 99.228 63.397,95.608 63.897,92.250 63.908 C 89.604 63.916,88.714 63.829,85.917 63.285 C 84.437 62.997,80.783 63.054,79.667 63.382 C 79.162 63.530,78.337 63.772,77.833 63.921 C 75.471 64.616,72.369 65.131,69.141 65.364 C 65.413 65.634,64.465 65.506,60.238 64.163 C 59.268 63.855,56.943 63.973,55.234 64.417 C 53.216 64.941,51.208 64.964,48.232 64.496 C 47.050 64.310,45.446 64.084,44.667 63.993 C 43.887 63.902,42.842 63.754,42.344 63.664 C 38.788 63.021,34.298 63.863,33.439 65.335 C 32.936 66.195,33.748 68.699,34.562 68.801 C 34.666 68.814,35.099 68.889,35.525 68.967 C 35.962 69.047,37.635 69.040,39.358 68.952 C 44.313 68.697,58.775 68.847,61.779 69.183 C 63.361 69.360,63.765 69.277,65.917 68.329 C 68.130 67.354,73.178 67.002,80.167 67.334 C 82.412 67.441,85.975 67.591,88.083 67.667 C 90.192 67.743,92.742 67.891,93.750 67.995 C 96.566 68.286,97.521 68.103,99.328 66.927 C 99.829 66.600,100.336 66.333,100.455 66.333 C 100.574 66.333,100.801 66.261,100.961 66.172 C 101.544 65.847,103.430 65.491,105.117 65.388 C 106.980 65.274,107.349 65.076,107.605 64.056 C 107.806 63.255,106.864 61.762,106.123 61.707 C 106.009 61.699,105.542 61.653,105.083 61.606 C 104.625 61.559,104.100 61.557,103.917 61.601 " stroke="none" fill="#fad3bb" fill-rule="evenodd"></path><path id="path2" d="M83.704 32.735 C 83.194 33.413,83.166 33.519,83.268 34.383 C 83.827 39.143,78.614 43.167,71.888 43.167 C 71.216 43.167,70.895 43.252,70.628 43.500 C 70.431 43.683,70.165 43.833,70.037 43.833 C 69.908 43.833,69.612 43.683,69.379 43.500 C 69.071 43.258,68.700 43.166,68.019 43.164 C 66.003 43.159,63.156 42.232,62.029 41.214 C 60.832 40.134,59.833 40.359,59.833 41.708 C 59.833 42.892,62.372 44.411,65.667 45.198 C 66.903 45.493,72.866 45.494,74.333 45.199 C 81.391 43.781,84.514 41.348,85.433 36.554 C 85.775 34.770,85.576 33.314,84.875 32.481 C 84.361 31.870,84.355 31.871,83.704 32.735 M104.075 45.042 L 103.417 45.750 104.125 45.091 C 104.784 44.478,104.910 44.333,104.784 44.333 C 104.757 44.333,104.438 44.652,104.075 45.042 M54.208 55.282 C 54.369 55.323,54.631 55.323,54.792 55.282 C 54.952 55.240,54.821 55.205,54.500 55.205 C 54.179 55.205,54.048 55.240,54.208 55.282 M93.375 57.115 C 93.535 57.157,93.798 57.157,93.958 57.115 C 94.119 57.073,93.987 57.039,93.667 57.039 C 93.346 57.039,93.215 57.073,93.375 57.115 M70.711 57.953 C 70.964 57.991,71.339 57.990,71.544 57.951 C 71.749 57.911,71.542 57.880,71.083 57.881 C 70.625 57.882,70.457 57.915,70.711 57.953 M141.101 61.430 C 141.046 61.575,141.000 62.100,141.000 62.597 L 141.000 63.500 142.250 63.500 L 143.500 63.500 143.500 66.833 L 143.500 70.167 144.667 70.167 L 145.833 70.167 145.833 66.833 L 145.833 63.500 147.000 63.500 L 148.167 63.500 148.167 62.333 L 148.167 61.167 144.684 61.167 C 141.663 61.167,141.189 61.202,141.101 61.430 M152.500 61.333 C 152.500 61.425,152.312 61.500,152.082 61.500 C 151.564 61.500,149.833 63.005,149.833 63.455 C 149.833 63.571,149.764 63.667,149.680 63.667 C 149.213 63.667,149.161 67.001,149.612 67.956 C 149.898 68.559,150.937 69.664,151.220 69.666 C 151.296 69.666,151.470 69.779,151.607 69.917 C 151.745 70.054,151.997 70.167,152.169 70.167 C 152.340 70.167,152.527 70.242,152.583 70.333 C 152.640 70.425,153.244 70.500,153.927 70.500 C 154.642 70.500,155.167 70.430,155.167 70.333 C 155.167 70.242,155.335 70.166,155.542 70.166 C 156.567 70.163,158.333 68.124,158.333 66.943 C 158.333 66.710,158.408 66.473,158.500 66.417 C 158.704 66.290,158.722 65.387,158.522 65.264 C 158.443 65.215,158.338 64.877,158.290 64.513 C 158.136 63.370,156.445 61.500,155.565 61.500 C 155.346 61.500,155.167 61.425,155.167 61.333 C 155.167 61.236,154.611 61.167,153.833 61.167 C 153.056 61.167,152.500 61.236,152.500 61.333 M159.708 61.277 C 159.549 61.341,159.500 62.400,159.500 65.775 L 159.500 70.188 162.445 70.136 C 164.614 70.097,165.408 70.028,165.459 69.875 C 165.497 69.760,165.638 69.667,165.772 69.667 C 166.070 69.667,166.833 68.870,166.833 68.559 C 166.833 68.435,166.908 68.333,167.000 68.333 C 167.092 68.333,167.167 68.146,167.167 67.917 C 167.167 67.688,167.242 67.500,167.333 67.500 C 167.433 67.500,167.500 66.837,167.500 65.843 C 167.500 64.918,167.426 64.141,167.333 64.083 C 167.242 64.027,167.167 63.835,167.167 63.657 C 167.167 63.479,167.092 63.333,167.000 63.333 C 166.908 63.333,166.833 63.232,166.833 63.108 C 166.833 62.528,165.358 61.500,164.526 61.500 C 164.247 61.500,163.973 61.425,163.917 61.333 C 163.813 61.165,160.108 61.116,159.708 61.277 M171.833 61.315 C 171.833 61.396,171.571 61.512,171.250 61.572 C 170.929 61.633,170.667 61.753,170.667 61.841 C 170.667 61.928,170.572 62.000,170.457 62.000 C 170.341 62.000,170.060 62.233,169.832 62.517 C 169.603 62.802,169.318 63.139,169.198 63.266 C 169.078 63.393,168.937 63.760,168.885 64.082 C 168.832 64.403,168.725 64.667,168.645 64.667 C 168.565 64.667,168.500 65.192,168.500 65.833 C 168.500 66.475,168.565 67.000,168.645 67.000 C 168.725 67.000,168.836 67.282,168.891 67.627 C 168.947 67.976,169.141 68.361,169.329 68.497 C 169.515 68.631,169.667 68.828,169.667 68.936 C 169.667 69.209,171.202 70.167,171.640 70.167 C 171.838 70.167,172.000 70.242,172.000 70.333 C 172.000 70.429,172.500 70.500,173.167 70.500 C 173.808 70.500,174.333 70.435,174.333 70.355 C 174.333 70.275,174.633 70.161,175.000 70.103 C 175.367 70.044,175.667 69.922,175.667 69.831 C 175.667 69.741,175.767 69.667,175.889 69.667 C 176.138 69.667,177.000 68.763,177.000 68.501 C 177.000 68.409,177.075 68.333,177.167 68.333 C 177.258 68.333,177.333 68.227,177.333 68.097 C 177.333 67.967,177.417 67.833,177.520 67.799 C 178.023 67.631,177.881 64.126,177.347 63.553 C 177.179 63.372,176.990 63.065,176.929 62.871 C 176.867 62.676,176.670 62.471,176.491 62.414 C 176.313 62.357,176.167 62.241,176.167 62.155 C 176.167 62.070,176.086 62.000,175.988 62.000 C 175.890 62.000,175.697 61.887,175.560 61.750 C 175.422 61.612,175.132 61.500,174.915 61.500 C 174.697 61.500,174.473 61.425,174.417 61.333 C 174.289 61.127,171.833 61.110,171.833 61.315 M182.434 61.430 C 182.379 61.575,182.333 63.600,182.333 65.930 L 182.333 70.167 185.667 70.167 L 189.000 70.167 189.000 69.167 L 189.000 68.167 186.917 68.167 L 184.833 68.167 184.833 67.589 L 184.833 67.011 186.625 66.964 L 188.417 66.917 188.466 65.792 L 188.515 64.667 186.674 64.667 L 184.833 64.667 184.833 64.083 L 184.833 63.500 186.917 63.500 L 189.000 63.500 189.000 62.333 L 189.000 61.167 185.768 61.167 C 182.974 61.167,182.522 61.202,182.434 61.430 M190.167 65.659 L 190.167 70.167 193.583 70.167 L 197.000 70.167 197.000 69.167 L 197.000 68.167 194.753 68.167 L 192.507 68.167 192.462 64.708 L 192.417 61.250 191.292 61.201 L 190.167 61.151 190.167 65.659 M204.000 61.333 C 204.000 61.425,203.856 61.500,203.681 61.500 C 203.259 61.500,202.167 62.573,202.167 62.987 C 202.167 63.167,202.092 63.360,202.000 63.417 C 201.908 63.473,201.833 63.736,201.833 64.000 C 201.833 64.264,201.908 64.527,202.000 64.583 C 202.092 64.640,202.167 64.805,202.167 64.950 C 202.167 65.319,203.095 66.167,203.498 66.167 C 203.683 66.167,203.833 66.242,203.833 66.333 C 203.833 66.425,204.016 66.500,204.240 66.500 C 204.464 66.500,204.688 66.566,204.738 66.647 C 204.788 66.729,205.173 66.846,205.593 66.909 C 206.817 67.093,207.515 68.000,206.625 68.249 C 206.419 68.307,206.080 68.438,205.872 68.540 C 205.589 68.680,205.444 68.677,205.297 68.530 C 205.188 68.422,204.982 68.333,204.837 68.333 C 204.559 68.333,204.000 67.776,204.000 67.498 C 204.000 67.405,203.486 67.333,202.819 67.333 L 201.637 67.333 201.754 68.026 C 201.896 68.866,202.891 69.953,203.659 70.107 C 203.942 70.163,204.214 70.275,204.263 70.355 C 204.381 70.546,206.787 70.543,206.905 70.352 C 206.955 70.271,207.255 70.156,207.571 70.097 C 208.206 69.977,209.000 69.176,209.000 68.654 C 209.000 68.478,209.075 68.333,209.167 68.333 C 209.396 68.333,209.377 67.080,209.141 66.623 C 209.035 66.418,208.897 66.137,208.835 66.000 C 208.773 65.862,208.560 65.676,208.361 65.585 C 208.163 65.495,208.000 65.365,208.000 65.296 C 208.000 65.227,207.698 65.122,207.330 65.063 C 206.961 65.004,206.619 64.891,206.570 64.811 C 206.521 64.732,206.264 64.667,206.000 64.667 C 205.736 64.667,205.477 64.597,205.425 64.513 C 205.372 64.428,205.105 64.310,204.831 64.250 C 204.211 64.113,204.169 63.646,204.744 63.269 C 205.423 62.824,206.667 63.197,206.667 63.846 C 206.667 64.132,206.793 64.167,207.833 64.167 C 209.088 64.167,209.091 64.164,208.899 63.204 C 208.761 62.514,207.780 61.500,207.250 61.500 C 207.021 61.500,206.833 61.425,206.833 61.333 C 206.833 61.235,206.250 61.167,205.417 61.167 C 204.583 61.167,204.000 61.235,204.000 61.333 M213.875 61.411 C 213.760 61.544,213.667 61.764,213.667 61.900 C 213.667 62.036,213.597 62.190,213.513 62.242 C 213.428 62.294,213.310 62.561,213.250 62.835 C 213.189 63.109,213.071 63.333,212.987 63.333 C 212.902 63.333,212.833 63.521,212.833 63.750 C 212.833 63.979,212.764 64.167,212.680 64.167 C 212.596 64.167,212.476 64.397,212.414 64.678 C 212.352 64.959,212.197 65.390,212.069 65.636 C 211.940 65.882,211.835 66.177,211.834 66.292 C 211.834 66.406,211.758 66.500,211.667 66.500 C 211.575 66.500,211.500 66.688,211.500 66.917 C 211.500 67.146,211.428 67.333,211.341 67.333 C 211.253 67.333,211.133 67.596,211.072 67.917 C 211.012 68.237,210.896 68.500,210.815 68.500 C 210.733 68.500,210.666 68.631,210.666 68.792 C 210.665 68.952,210.553 69.298,210.416 69.561 C 210.279 69.823,210.167 70.067,210.167 70.102 C 210.167 70.138,210.766 70.167,211.498 70.167 L 212.829 70.167 212.936 69.500 C 212.995 69.133,213.108 68.833,213.188 68.833 C 213.268 68.833,213.333 68.721,213.333 68.583 C 213.333 68.379,213.617 68.333,214.890 68.333 L 216.447 68.333 216.667 69.000 C 216.788 69.367,216.950 69.667,217.027 69.667 C 217.104 69.667,217.167 69.779,217.167 69.917 C 217.167 70.115,217.407 70.167,218.333 70.167 C 219.768 70.167,219.815 69.969,218.823 68.127 C 218.737 67.968,218.667 67.724,218.667 67.586 C 218.667 67.447,218.598 67.333,218.513 67.333 C 218.429 67.333,218.307 67.092,218.242 66.797 C 218.177 66.502,218.064 66.146,217.990 66.005 C 217.631 65.326,217.333 64.593,217.333 64.391 C 217.333 64.268,217.264 64.167,217.180 64.167 C 217.096 64.167,216.977 63.941,216.916 63.665 C 216.805 63.159,216.503 62.434,216.084 61.667 C 215.807 61.160,214.247 60.980,213.875 61.411 M220.601 61.430 C 220.546 61.575,220.500 63.600,220.500 65.930 L 220.500 70.167 223.683 70.167 C 227.135 70.167,227.397 70.109,228.083 69.194 C 228.631 68.464,228.556 66.740,227.942 65.935 C 227.503 65.360,227.487 65.290,227.734 65.018 C 228.695 63.956,227.736 61.500,226.360 61.500 C 225.989 61.500,225.640 61.425,225.583 61.333 C 225.395 61.028,220.721 61.119,220.601 61.430 M232.833 61.333 C 232.696 61.414,232.388 61.521,232.149 61.571 C 231.223 61.763,229.667 63.648,229.667 64.575 C 229.667 64.809,229.592 65.000,229.500 65.000 C 229.408 65.000,229.333 65.333,229.333 65.740 C 229.333 66.147,229.408 66.527,229.500 66.583 C 229.592 66.640,229.667 66.873,229.667 67.101 C 229.667 68.189,231.465 70.163,232.458 70.166 C 232.665 70.166,232.833 70.242,232.833 70.333 C 232.833 70.430,233.361 70.500,234.083 70.500 C 234.806 70.500,235.333 70.430,235.333 70.333 C 235.333 70.242,235.515 70.167,235.738 70.167 C 235.961 70.167,236.255 70.054,236.393 69.917 C 236.530 69.779,236.723 69.667,236.820 69.667 C 238.172 69.667,239.209 65.666,238.346 63.783 C 237.845 62.690,236.549 61.500,235.859 61.500 C 235.662 61.500,235.500 61.425,235.500 61.333 C 235.500 61.127,233.184 61.127,232.833 61.333 M239.833 65.667 L 239.833 70.167 241.000 70.167 L 242.167 70.167 242.167 68.738 C 242.167 67.239,242.491 66.829,242.915 67.793 C 243.005 67.998,243.131 68.167,243.194 68.167 C 243.257 68.167,243.583 68.617,243.917 69.167 L 244.524 70.167 246.012 70.167 C 247.549 70.167,247.731 70.070,247.208 69.534 C 247.048 69.370,246.767 69.026,246.583 68.771 C 246.249 68.305,245.835 67.774,245.486 67.364 C 245.276 67.117,245.276 67.119,245.794 66.849 C 247.177 66.129,247.448 62.022,246.113 62.002 C 246.038 62.001,245.864 61.887,245.726 61.750 C 245.589 61.612,245.261 61.500,244.998 61.500 C 244.735 61.500,244.473 61.425,244.417 61.333 C 244.356 61.236,243.387 61.167,242.073 61.167 L 239.833 61.167 239.833 65.667 M252.115 61.274 C 252.052 61.337,252.000 63.364,252.000 65.778 L 252.000 70.167 255.333 70.167 L 258.667 70.167 258.667 69.167 L 258.667 68.167 256.583 68.167 L 254.500 68.167 254.500 67.589 L 254.500 67.011 256.292 66.964 L 258.083 66.917 258.133 65.792 L 258.182 64.667 256.341 64.667 L 254.500 64.667 254.500 64.083 L 254.500 63.500 256.591 63.500 L 258.682 63.500 258.633 62.375 L 258.583 61.250 255.406 61.205 C 253.659 61.180,252.178 61.211,252.115 61.274 M259.833 65.667 L 259.833 70.167 260.833 70.167 L 261.833 70.167 261.846 67.208 C 261.856 65.022,261.903 64.370,262.027 64.708 C 262.119 64.960,262.263 65.167,262.347 65.167 C 262.431 65.167,262.500 65.266,262.500 65.388 C 262.500 65.509,262.688 65.785,262.917 66.000 C 263.146 66.215,263.333 66.493,263.333 66.618 C 263.333 66.742,263.439 66.884,263.568 66.934 C 263.698 66.984,263.849 67.206,263.905 67.429 C 263.961 67.651,264.080 67.833,264.170 67.833 C 264.260 67.833,264.333 67.912,264.333 68.007 C 264.333 68.103,264.521 68.383,264.750 68.631 C 264.979 68.878,265.167 69.177,265.167 69.295 C 265.167 69.414,265.279 69.554,265.417 69.606 C 265.554 69.659,265.667 69.807,265.667 69.934 C 265.667 70.114,265.971 70.167,267.000 70.167 L 268.333 70.167 268.333 65.854 C 268.333 60.940,268.385 61.118,266.972 61.199 L 266.083 61.250 266.000 63.917 C 265.948 65.585,265.869 66.412,265.788 66.125 C 265.718 65.873,265.587 65.667,265.497 65.667 C 265.407 65.667,265.333 65.571,265.333 65.454 C 265.333 65.337,265.195 65.122,265.026 64.977 C 264.857 64.833,264.484 64.305,264.198 63.804 C 263.911 63.304,263.525 62.757,263.339 62.588 C 263.152 62.420,263.000 62.194,263.000 62.087 C 263.000 61.522,262.240 61.167,261.031 61.167 L 259.833 61.167 259.833 65.667 M272.833 64.750 C 272.833 66.822,272.898 68.333,272.987 68.333 C 273.071 68.333,273.187 68.548,273.245 68.810 C 273.380 69.427,274.049 70.002,274.766 70.118 C 275.078 70.169,275.333 70.275,275.333 70.355 C 275.333 70.546,277.787 70.543,277.905 70.352 C 277.955 70.271,278.242 70.158,278.542 70.102 C 279.144 69.989,280.000 69.290,280.000 68.910 C 280.000 68.776,280.067 68.667,280.149 68.667 C 280.385 68.667,280.520 67.458,280.608 64.551 C 280.709 61.176,280.692 61.133,279.282 61.201 L 278.250 61.250 278.167 64.535 C 278.072 68.279,278.055 68.320,276.667 68.325 C 275.305 68.330,275.177 67.977,275.171 64.222 C 275.166 61.033,275.221 61.167,273.899 61.167 L 272.833 61.167 272.833 64.750 M281.434 61.430 C 281.379 61.575,281.333 63.600,281.333 65.930 L 281.333 70.167 282.417 70.167 L 283.500 70.167 283.500 67.417 C 283.500 65.694,283.562 64.667,283.667 64.667 C 283.758 64.667,283.833 64.746,283.833 64.843 C 283.833 65.032,284.833 66.379,285.042 66.472 C 285.110 66.503,285.167 66.622,285.167 66.738 C 285.167 66.854,285.354 67.166,285.583 67.432 C 285.812 67.699,286.000 67.968,286.000 68.030 C 286.000 68.092,286.095 68.242,286.210 68.363 C 286.326 68.484,286.556 68.795,286.722 69.053 C 287.405 70.120,287.492 70.167,288.787 70.167 L 290.000 70.167 290.000 65.930 C 290.000 60.870,290.074 61.167,288.816 61.167 L 287.833 61.167 287.833 63.750 C 287.833 66.109,287.696 66.879,287.426 66.029 C 287.373 65.862,287.199 65.579,287.040 65.400 C 286.880 65.222,286.491 64.702,286.173 64.246 C 285.856 63.790,285.537 63.392,285.465 63.361 C 285.393 63.331,285.333 63.211,285.333 63.095 C 285.333 62.979,285.176 62.704,284.984 62.484 C 284.792 62.264,284.528 61.877,284.396 61.625 C 284.104 61.064,281.637 60.901,281.434 61.430 M296.833 61.333 C 296.833 61.425,296.714 61.500,296.567 61.500 C 296.177 61.500,295.333 62.037,295.333 62.286 C 295.333 62.404,295.258 62.500,295.167 62.500 C 295.075 62.500,295.000 62.650,295.000 62.833 C 295.000 63.017,294.925 63.167,294.833 63.167 C 293.961 63.167,295.182 65.911,296.140 66.103 C 296.430 66.161,296.667 66.274,296.667 66.354 C 296.667 66.434,296.850 66.500,297.073 66.500 C 297.297 66.500,297.521 66.566,297.571 66.647 C 297.622 66.729,298.006 66.846,298.427 66.909 C 299.860 67.124,300.192 67.830,299.101 68.342 C 298.252 68.742,297.244 68.449,296.919 67.708 C 296.654 67.105,294.500 67.138,294.500 67.745 C 294.500 68.319,295.162 69.530,295.529 69.626 C 295.696 69.670,295.833 69.763,295.833 69.834 C 295.833 70.283,299.056 70.713,299.794 70.362 C 301.678 69.467,302.065 68.965,302.057 67.425 C 302.054 66.827,301.976 66.409,301.859 66.370 C 301.753 66.334,301.667 66.231,301.667 66.141 C 301.667 65.928,301.239 65.500,301.026 65.500 C 300.935 65.500,300.834 65.418,300.800 65.317 C 300.767 65.216,300.387 65.094,299.956 65.046 C 299.526 64.997,299.214 64.892,299.263 64.812 C 299.313 64.732,299.086 64.667,298.760 64.667 C 298.434 64.667,298.167 64.601,298.167 64.521 C 298.167 64.441,297.942 64.330,297.667 64.275 C 296.787 64.099,297.271 63.000,298.228 63.000 C 298.628 63.000,299.500 63.680,299.500 63.992 C 299.500 64.096,299.939 64.167,300.583 64.167 L 301.667 64.167 301.667 63.500 C 301.667 63.133,301.592 62.833,301.500 62.833 C 301.408 62.833,301.333 62.732,301.333 62.609 C 301.333 62.221,300.733 61.672,300.189 61.563 C 299.902 61.505,299.667 61.393,299.667 61.313 C 299.667 61.232,299.029 61.167,298.250 61.167 C 297.417 61.167,296.833 61.235,296.833 61.333 M306.333 61.315 C 306.333 61.396,306.071 61.512,305.750 61.572 C 305.429 61.633,305.167 61.753,305.167 61.841 C 305.167 61.928,305.072 62.000,304.957 62.000 C 304.841 62.000,304.560 62.233,304.332 62.517 C 304.103 62.802,303.818 63.139,303.698 63.266 C 303.578 63.393,303.437 63.760,303.385 64.082 C 303.332 64.403,303.225 64.667,303.145 64.667 C 303.065 64.667,303.000 65.192,303.000 65.833 C 303.000 66.475,303.065 67.000,303.145 67.000 C 303.225 67.000,303.336 67.282,303.391 67.627 C 303.447 67.976,303.641 68.361,303.829 68.497 C 304.015 68.631,304.167 68.828,304.167 68.936 C 304.167 69.209,305.702 70.167,306.140 70.167 C 306.338 70.167,306.500 70.242,306.500 70.333 C 306.500 70.429,307.000 70.500,307.667 70.500 C 308.308 70.500,308.833 70.435,308.833 70.355 C 308.833 70.275,309.094 70.168,309.412 70.116 C 309.730 70.065,310.086 69.944,310.203 69.847 C 310.321 69.751,310.660 69.476,310.958 69.238 C 311.256 68.999,311.500 68.698,311.500 68.569 C 311.500 68.439,311.569 68.333,311.653 68.333 C 311.738 68.333,311.856 68.109,311.916 67.835 C 311.976 67.561,312.095 67.294,312.179 67.242 C 312.388 67.113,312.376 64.546,312.167 64.417 C 312.075 64.360,312.000 64.173,312.000 64.002 C 312.000 63.831,311.887 63.578,311.750 63.440 C 311.612 63.303,311.500 63.123,311.500 63.039 C 311.500 62.881,310.573 62.000,310.406 62.000 C 310.353 62.000,310.197 61.887,310.060 61.750 C 309.922 61.612,309.632 61.500,309.415 61.500 C 309.197 61.500,308.973 61.425,308.917 61.333 C 308.789 61.127,306.333 61.110,306.333 61.315 M313.500 65.667 L 313.500 70.167 316.917 70.167 L 320.333 70.167 320.333 69.167 L 320.333 68.167 318.083 68.167 L 315.833 68.167 315.833 64.905 C 315.833 61.123,315.850 61.167,314.429 61.167 L 313.500 61.167 313.500 65.667 M324.667 61.333 C 324.667 61.425,324.496 61.500,324.287 61.500 C 323.677 61.500,322.000 62.879,322.000 63.381 C 322.000 63.523,321.921 63.665,321.824 63.697 C 321.331 63.862,321.357 67.238,321.858 68.169 C 322.112 68.641,323.057 69.667,323.238 69.667 C 323.304 69.667,323.470 69.779,323.607 69.917 C 323.745 70.054,324.035 70.167,324.252 70.167 C 324.469 70.167,324.693 70.242,324.750 70.333 C 324.875 70.536,326.891 70.556,327.294 70.358 C 327.453 70.280,327.881 70.073,328.245 69.900 C 329.082 69.499,329.993 68.554,330.115 67.958 C 330.166 67.706,330.266 67.500,330.336 67.500 C 330.475 67.500,330.685 66.498,330.685 65.833 C 330.685 65.168,330.475 64.167,330.336 64.167 C 330.266 64.167,330.166 63.960,330.113 63.708 C 330.061 63.456,329.824 63.063,329.587 62.833 C 329.350 62.604,328.996 62.249,328.800 62.044 C 328.604 61.839,328.194 61.624,327.889 61.567 C 327.583 61.510,327.333 61.396,327.333 61.315 C 327.333 61.233,326.733 61.167,326.000 61.167 C 325.222 61.167,324.667 61.236,324.667 61.333 M335.444 61.278 C 335.383 61.339,335.333 63.368,335.333 65.788 L 335.333 70.186 338.575 70.135 L 341.817 70.083 342.409 69.437 C 343.380 68.377,343.195 66.057,342.097 65.524 C 341.906 65.432,341.844 65.351,341.958 65.345 C 342.073 65.338,342.167 65.221,342.167 65.083 C 342.167 64.946,342.223 64.833,342.293 64.833 C 342.879 64.833,342.867 62.893,342.277 62.229 C 342.170 62.110,341.987 61.896,341.868 61.756 C 341.735 61.597,341.375 61.500,340.920 61.500 C 340.516 61.500,340.140 61.425,340.083 61.333 C 339.969 61.148,335.626 61.096,335.444 61.278 M347.333 61.333 C 347.333 61.425,347.155 61.500,346.937 61.500 C 346.719 61.500,346.447 61.612,346.333 61.750 C 346.219 61.887,346.056 62.000,345.971 62.000 C 345.757 62.000,344.668 63.206,344.667 63.444 C 344.667 63.551,344.576 63.669,344.465 63.706 C 344.050 63.845,344.077 67.034,344.501 67.883 C 345.136 69.154,346.335 70.167,347.206 70.167 C 347.368 70.167,347.500 70.242,347.500 70.333 C 347.500 70.430,348.028 70.500,348.750 70.500 C 349.472 70.500,350.000 70.430,350.000 70.333 C 350.000 70.242,350.173 70.167,350.384 70.167 C 351.024 70.167,352.833 68.605,352.833 68.053 C 352.833 67.932,352.908 67.833,353.000 67.833 C 353.092 67.833,353.167 67.650,353.167 67.427 C 353.167 67.203,353.242 66.973,353.333 66.917 C 353.425 66.860,353.500 66.373,353.500 65.833 C 353.500 65.294,353.425 64.807,353.333 64.750 C 353.242 64.693,353.167 64.464,353.167 64.240 C 353.167 64.016,353.092 63.833,353.000 63.833 C 352.908 63.833,352.833 63.730,352.833 63.605 C 352.833 63.204,351.203 61.666,350.665 61.558 C 350.387 61.502,350.119 61.392,350.070 61.312 C 349.943 61.107,347.333 61.127,347.333 61.333 M357.763 61.312 C 357.714 61.392,357.454 61.501,357.185 61.555 C 356.632 61.665,355.089 63.121,354.907 63.704 C 354.842 63.912,354.719 64.128,354.635 64.182 C 354.420 64.321,354.443 67.398,354.660 67.470 C 354.755 67.502,354.833 67.672,354.833 67.849 C 354.833 68.025,355.058 68.405,355.333 68.693 C 355.608 68.981,355.833 69.275,355.833 69.347 C 355.833 69.419,355.999 69.530,356.201 69.594 C 356.403 69.658,356.670 69.813,356.796 69.939 C 356.921 70.064,357.206 70.167,357.429 70.167 C 357.651 70.167,357.833 70.242,357.833 70.333 C 357.833 70.538,360.110 70.559,360.236 70.356 C 360.285 70.276,360.591 70.168,360.916 70.116 C 361.529 70.016,362.713 68.987,363.125 68.196 C 363.388 67.690,363.386 67.667,363.083 67.667 C 362.946 67.667,362.833 67.592,362.833 67.500 C 362.833 67.408,362.690 67.333,362.514 67.333 C 362.338 67.333,362.169 67.260,362.139 67.170 C 362.050 66.908,361.000 66.753,361.000 67.001 C 361.000 67.265,360.357 67.833,360.058 67.833 C 359.934 67.833,359.833 67.908,359.833 68.000 C 359.833 68.092,359.458 68.167,359.000 68.167 C 358.542 68.167,358.167 68.092,358.167 68.000 C 358.167 67.908,358.071 67.833,357.954 67.833 C 357.721 67.833,357.167 67.254,357.167 67.012 C 357.167 66.929,357.077 66.831,356.968 66.795 C 356.847 66.755,356.769 66.378,356.769 65.833 C 356.769 65.288,356.847 64.912,356.968 64.872 C 357.077 64.835,357.167 64.737,357.167 64.653 C 357.167 64.447,357.791 63.833,358.000 63.833 C 358.092 63.833,358.167 63.758,358.167 63.667 C 358.167 63.054,360.675 63.830,360.972 64.535 C 361.044 64.706,362.000 64.707,362.000 64.537 C 362.000 64.465,362.225 64.321,362.500 64.218 C 363.481 63.847,362.441 61.909,361.078 61.567 C 360.850 61.510,360.622 61.396,360.572 61.315 C 360.454 61.123,357.881 61.121,357.763 61.312 M367.619 61.799 C 367.462 62.154,367.333 62.533,367.333 62.639 C 367.333 62.746,367.259 62.833,367.169 62.833 C 367.078 62.833,366.956 63.133,366.897 63.500 C 366.839 63.867,366.731 64.167,366.659 64.167 C 366.586 64.167,366.477 64.391,366.417 64.665 C 366.357 64.939,366.238 65.206,366.154 65.258 C 366.069 65.310,366.000 65.499,366.000 65.677 C 366.000 65.854,365.926 66.000,365.835 66.000 C 365.745 66.000,365.623 66.300,365.564 66.667 C 365.505 67.033,365.398 67.333,365.325 67.333 C 365.253 67.333,365.140 67.575,365.075 67.870 C 364.956 68.411,364.677 69.012,364.472 69.168 C 364.410 69.215,364.308 69.459,364.245 69.710 L 364.131 70.167 365.480 70.167 L 366.829 70.167 366.936 69.500 C 366.995 69.133,367.108 68.833,367.188 68.833 C 367.268 68.833,367.333 68.721,367.333 68.583 C 367.333 68.379,367.620 68.333,368.917 68.333 C 370.373 68.333,370.500 68.359,370.500 68.657 C 370.500 68.835,370.569 69.023,370.654 69.075 C 370.738 69.128,370.857 69.395,370.917 69.669 L 371.026 70.167 372.263 70.167 C 373.343 70.167,373.500 70.129,373.500 69.867 C 373.500 69.510,373.130 68.670,372.973 68.668 C 372.912 68.667,372.812 68.367,372.750 68.000 C 372.688 67.633,372.577 67.333,372.503 67.333 C 372.430 67.333,372.320 67.127,372.259 66.875 C 372.104 66.236,371.774 65.500,371.641 65.500 C 371.579 65.500,371.479 65.200,371.417 64.833 C 371.355 64.467,371.242 64.167,371.165 64.167 C 371.089 64.167,370.973 63.925,370.909 63.630 C 370.799 63.131,370.530 62.527,370.331 62.333 C 370.284 62.288,370.170 62.025,370.078 61.750 C 369.919 61.277,369.856 61.247,368.907 61.201 L 367.904 61.153 367.619 61.799 M374.611 61.278 C 374.550 61.339,374.500 63.364,374.500 65.778 L 374.500 70.167 377.292 70.163 L 380.083 70.160 380.875 69.663 C 381.310 69.390,381.667 69.054,381.667 68.916 C 381.667 68.779,381.723 68.667,381.793 68.667 C 382.422 68.667,382.698 64.417,382.135 63.417 C 381.761 62.754,381.088 62.000,380.869 62.000 C 380.773 62.000,380.667 61.918,380.633 61.817 C 380.600 61.716,380.217 61.594,379.782 61.545 C 379.348 61.496,378.952 61.391,378.903 61.311 C 378.799 61.143,374.777 61.112,374.611 61.278 M386.833 61.333 C 386.833 61.425,386.655 61.500,386.437 61.500 C 386.219 61.500,385.947 61.612,385.833 61.750 C 385.719 61.887,385.556 62.000,385.471 62.000 C 385.257 62.000,384.168 63.206,384.167 63.444 C 384.167 63.551,384.076 63.669,383.965 63.706 C 383.550 63.845,383.577 67.034,384.001 67.883 C 384.636 69.154,385.835 70.167,386.706 70.167 C 386.868 70.167,387.000 70.242,387.000 70.333 C 387.000 70.430,387.528 70.500,388.250 70.500 C 388.938 70.500,389.500 70.433,389.500 70.352 C 389.500 70.270,389.752 70.156,390.060 70.099 C 391.387 69.850,393.000 67.510,393.000 65.833 C 393.000 65.225,392.903 64.879,392.441 63.833 C 392.191 63.269,391.493 62.333,391.321 62.333 C 391.245 62.333,390.994 62.146,390.765 61.917 C 390.536 61.688,390.200 61.500,390.017 61.500 C 389.835 61.500,389.640 61.425,389.583 61.333 C 389.527 61.242,388.885 61.167,388.157 61.167 C 387.386 61.167,386.833 61.236,386.833 61.333 M38.628 63.454 C 38.928 63.491,39.378 63.490,39.628 63.452 C 39.878 63.414,39.633 63.384,39.083 63.385 C 38.533 63.386,38.328 63.417,38.628 63.454 M164.479 63.937 C 164.884 64.374,164.917 64.521,164.917 65.913 C 164.917 67.866,164.693 68.142,162.989 68.285 L 161.833 68.382 161.833 65.835 L 161.833 63.288 162.937 63.376 C 163.875 63.452,164.108 63.536,164.479 63.937 M225.472 63.479 C 226.241 63.967,225.611 64.582,224.292 64.632 L 223.000 64.681 223.000 64.007 L 223.000 63.333 224.125 63.336 C 224.744 63.337,225.350 63.402,225.472 63.479 M244.308 63.481 C 244.571 63.648,244.640 64.760,244.401 64.999 C 244.310 65.090,243.770 65.213,243.201 65.273 L 242.167 65.381 242.167 64.357 L 242.167 63.333 243.125 63.336 C 243.652 63.337,244.184 63.402,244.308 63.481 M340.273 63.584 C 340.580 64.382,340.223 64.667,338.913 64.667 L 337.667 64.667 337.667 64.000 L 337.667 63.333 338.922 63.333 C 339.885 63.333,340.200 63.392,340.273 63.584 M379.135 63.654 C 379.168 63.753,379.295 63.833,379.417 63.833 C 379.540 63.833,379.690 64.058,379.750 64.333 C 379.810 64.608,379.929 64.833,380.013 64.833 C 380.278 64.833,380.182 66.584,379.885 67.183 C 379.452 68.054,379.262 68.170,378.090 68.280 L 377.000 68.382 377.000 65.834 L 377.000 63.287 378.038 63.381 C 378.608 63.433,379.102 63.556,379.135 63.654 M155.306 64.141 C 155.688 64.494,156.000 64.902,156.000 65.048 C 156.000 65.194,156.075 65.360,156.167 65.417 C 156.359 65.536,156.395 66.332,156.208 66.335 C 156.140 66.336,155.939 66.638,155.763 67.006 C 155.566 67.418,155.293 67.712,155.055 67.772 C 154.841 67.826,154.667 67.936,154.667 68.018 C 154.667 68.100,154.292 68.167,153.833 68.167 C 153.375 68.167,153.000 68.100,153.000 68.018 C 153.000 67.936,152.827 67.826,152.615 67.773 C 151.245 67.429,151.419 63.833,152.807 63.833 C 152.913 63.833,153.000 63.758,153.000 63.667 C 153.000 63.172,154.616 63.505,155.306 64.141 M174.350 63.792 C 174.719 64.096,174.942 64.320,175.292 64.737 C 176.173 65.789,174.804 68.167,173.318 68.167 C 172.073 68.167,170.833 66.941,170.833 65.710 C 170.833 64.117,173.187 62.833,174.350 63.792 M235.000 63.667 C 235.000 63.758,235.087 63.833,235.193 63.833 C 235.743 63.833,236.333 64.884,236.333 65.863 C 236.333 66.397,236.266 66.833,236.185 66.833 C 236.103 66.833,235.991 67.013,235.936 67.232 C 235.876 67.473,235.672 67.671,235.418 67.735 C 235.188 67.792,235.000 67.913,235.000 68.003 C 235.000 68.093,234.625 68.167,234.167 68.167 C 233.708 68.167,233.333 68.100,233.333 68.018 C 233.333 67.936,233.146 67.822,232.917 67.765 C 232.688 67.707,232.500 67.592,232.500 67.509 C 232.500 67.425,232.369 67.226,232.208 67.065 C 231.096 65.953,232.453 63.500,234.181 63.500 C 234.631 63.500,235.000 63.575,235.000 63.667 M308.850 63.792 C 309.219 64.096,309.442 64.320,309.792 64.737 C 310.650 65.761,309.276 68.167,307.834 68.167 C 306.574 68.167,305.333 66.948,305.333 65.710 C 305.333 64.117,307.687 62.833,308.850 63.792 M326.833 63.667 C 326.833 63.758,326.914 63.833,327.013 63.833 C 327.590 63.833,328.244 64.890,328.244 65.820 C 328.244 66.759,327.593 67.833,327.024 67.833 C 326.919 67.833,326.833 67.908,326.833 68.000 C 326.833 68.092,326.458 68.167,326.000 68.167 C 325.542 68.167,325.167 68.092,325.167 68.000 C 325.167 67.908,325.066 67.833,324.942 67.833 C 324.585 67.833,324.032 67.271,323.910 66.782 C 323.848 66.535,323.730 66.333,323.649 66.333 C 323.455 66.333,323.455 65.548,323.648 65.428 C 323.730 65.378,323.846 65.138,323.907 64.896 C 324.023 64.433,324.605 63.848,324.958 63.839 C 325.073 63.836,325.167 63.758,325.167 63.667 C 325.167 63.575,325.542 63.500,326.000 63.500 C 326.458 63.500,326.833 63.575,326.833 63.667 M350.228 64.189 C 351.028 64.989,351.231 66.460,350.625 67.065 C 350.465 67.226,350.333 67.425,350.333 67.509 C 350.333 67.592,350.146 67.707,349.917 67.765 C 349.688 67.822,349.500 67.936,349.500 68.018 C 349.500 68.100,349.125 68.167,348.667 68.167 C 348.208 68.167,347.833 68.093,347.833 68.003 C 347.833 67.913,347.645 67.792,347.415 67.735 C 347.162 67.671,346.958 67.473,346.897 67.232 C 346.842 67.013,346.730 66.833,346.649 66.833 C 346.567 66.833,346.500 66.397,346.500 65.863 C 346.500 64.884,347.090 63.833,347.640 63.833 C 347.746 63.833,347.833 63.758,347.833 63.667 C 347.833 63.134,349.547 63.508,350.228 64.189 M389.728 64.189 C 390.528 64.989,390.731 66.460,390.125 67.065 C 389.965 67.226,389.833 67.425,389.833 67.509 C 389.833 67.592,389.646 67.707,389.417 67.765 C 389.188 67.822,389.000 67.936,389.000 68.018 C 389.000 68.100,388.625 68.167,388.167 68.167 C 387.708 68.167,387.333 68.093,387.333 68.003 C 387.333 67.913,387.145 67.792,386.915 67.735 C 386.662 67.671,386.458 67.473,386.397 67.232 C 386.342 67.013,386.230 66.833,386.149 66.833 C 386.067 66.833,386.000 66.397,386.000 65.863 C 386.000 64.884,386.590 63.833,387.140 63.833 C 387.246 63.833,387.333 63.758,387.333 63.667 C 387.333 63.134,389.047 63.508,389.728 64.189 M94.625 63.784 C 94.831 63.824,95.169 63.824,95.375 63.784 C 95.581 63.745,95.412 63.712,95.000 63.712 C 94.587 63.712,94.419 63.745,94.625 63.784 M57.958 63.951 C 58.165 63.991,58.502 63.991,58.708 63.951 C 58.915 63.911,58.746 63.879,58.333 63.879 C 57.921 63.879,57.752 63.911,57.958 63.951 M90.881 63.957 C 91.412 63.990,92.237 63.990,92.714 63.956 C 93.192 63.922,92.758 63.895,91.750 63.896 C 90.742 63.896,90.351 63.924,90.881 63.957 M369.155 65.292 C 369.161 65.498,369.233 65.667,369.314 65.667 C 369.395 65.667,369.500 65.817,369.548 66.000 C 369.625 66.295,369.553 66.333,368.924 66.333 C 368.255 66.333,368.218 66.308,368.293 65.917 C 368.336 65.688,368.430 65.500,368.501 65.500 C 368.572 65.500,368.684 65.219,368.751 64.875 C 368.882 64.206,369.129 64.462,369.155 65.292 M50.460 64.785 C 50.668 64.824,50.968 64.823,51.127 64.781 C 51.286 64.739,51.117 64.707,50.750 64.709 C 50.383 64.711,50.253 64.745,50.460 64.785 M52.960 64.785 C 53.168 64.824,53.468 64.823,53.627 64.781 C 53.786 64.739,53.617 64.707,53.250 64.709 C 52.883 64.711,52.753 64.745,52.960 64.785 M215.167 65.167 C 215.167 65.339,215.233 65.521,215.313 65.571 C 215.840 65.896,215.617 66.333,214.924 66.333 C 214.255 66.333,214.218 66.308,214.293 65.917 C 214.336 65.688,214.438 65.500,214.519 65.500 C 214.600 65.500,214.667 65.362,214.667 65.194 C 214.667 65.026,214.715 64.841,214.773 64.782 C 214.945 64.611,215.167 64.827,215.167 65.167 M71.375 65.115 C 71.535 65.157,71.798 65.157,71.958 65.115 C 72.119 65.073,71.987 65.039,71.667 65.039 C 71.346 65.039,71.215 65.073,71.375 65.115 M66.208 65.456 C 66.644 65.490,67.356 65.490,67.792 65.456 C 68.227 65.422,67.871 65.393,67.000 65.393 C 66.129 65.393,65.773 65.422,66.208 65.456 M103.208 65.615 C 103.369 65.657,103.631 65.657,103.792 65.615 C 103.952 65.573,103.821 65.539,103.500 65.539 C 103.179 65.539,103.048 65.573,103.208 65.615 M225.683 66.845 C 226.789 67.632,226.148 68.333,224.321 68.333 L 223.000 68.333 223.000 67.417 L 223.000 66.500 224.099 66.500 C 224.943 66.500,225.311 66.580,225.683 66.845 M340.333 66.833 C 341.216 67.716,340.602 68.333,338.844 68.333 L 337.667 68.333 337.667 67.417 L 337.667 66.500 338.833 66.500 C 339.778 66.500,340.063 66.563,340.333 66.833 M74.042 67.291 C 74.752 67.322,75.915 67.322,76.625 67.291 C 77.335 67.259,76.754 67.234,75.333 67.234 C 73.912 67.234,73.331 67.259,74.042 67.291 M70.208 67.453 C 70.460 67.491,70.873 67.491,71.125 67.453 C 71.377 67.415,71.171 67.383,70.667 67.383 C 70.162 67.383,69.956 67.415,70.208 67.453 M80.042 67.453 C 80.294 67.491,80.706 67.491,80.958 67.453 C 81.210 67.415,81.004 67.383,80.500 67.383 C 79.996 67.383,79.790 67.415,80.042 67.453 M89.375 67.786 C 89.627 67.824,90.040 67.824,90.292 67.786 C 90.544 67.748,90.337 67.717,89.833 67.717 C 89.329 67.717,89.123 67.748,89.375 67.786 M41.375 68.948 C 41.535 68.990,41.798 68.990,41.958 68.948 C 42.119 68.906,41.987 68.872,41.667 68.872 C 41.346 68.872,41.215 68.906,41.375 68.948 M46.875 68.956 C 47.310 68.990,48.023 68.990,48.458 68.956 C 48.894 68.922,48.538 68.893,47.667 68.893 C 46.796 68.893,46.440 68.922,46.875 68.956 M37.625 69.121 C 37.923 69.158,38.410 69.158,38.708 69.121 C 39.006 69.084,38.762 69.053,38.167 69.053 C 37.571 69.053,37.327 69.084,37.625 69.121 M56.549 69.124 C 57.171 69.156,58.146 69.156,58.715 69.123 C 59.284 69.091,58.775 69.064,57.583 69.065 C 56.392 69.065,55.926 69.092,56.549 69.124 M61.375 69.282 C 61.535 69.323,61.798 69.323,61.958 69.282 C 62.119 69.240,61.987 69.205,61.667 69.205 C 61.346 69.205,61.215 69.240,61.375 69.282 " stroke="none" fill="#f57da1" fill-rule="evenodd"></path><path id="path3" d="M168.292 14.956 C 167.856 14.990,167.500 15.089,167.500 15.176 C 167.500 15.262,167.279 15.333,167.010 15.333 C 166.740 15.333,166.478 15.400,166.428 15.482 C 166.378 15.563,166.130 15.678,165.877 15.737 C 165.288 15.875,164.333 16.370,164.333 16.538 C 164.333 16.609,164.235 16.667,164.115 16.667 C 163.808 16.667,162.167 18.282,162.167 18.584 C 162.167 18.721,162.093 18.833,162.002 18.833 C 161.911 18.833,161.789 19.133,161.731 19.500 C 161.672 19.867,161.559 20.167,161.479 20.167 C 161.399 20.167,161.333 20.377,161.333 20.633 C 161.333 20.890,161.240 21.194,161.125 21.308 C 160.905 21.529,160.688 49.564,160.900 50.409 C 161.081 51.131,161.819 51.333,164.276 51.333 C 167.521 51.333,167.167 52.622,167.167 40.833 L 167.167 31.000 169.349 31.000 L 171.532 31.000 171.414 31.875 C 171.349 32.356,171.266 36.704,171.228 41.536 C 171.155 51.047,171.151 51.000,172.037 51.000 C 172.200 51.000,172.333 51.075,172.333 51.167 C 172.333 51.458,175.963 51.374,176.661 51.066 C 177.717 50.600,177.677 51.239,177.603 35.902 C 177.540 22.656,177.473 20.140,177.172 19.750 C 177.101 19.658,176.993 19.302,176.931 18.958 C 176.869 18.615,176.747 18.333,176.659 18.333 C 176.572 18.333,176.500 18.224,176.500 18.091 C 176.500 17.776,174.890 16.167,174.575 16.167 C 174.442 16.167,174.333 16.098,174.333 16.013 C 174.333 15.929,174.108 15.810,173.833 15.750 C 173.558 15.690,173.333 15.580,173.333 15.506 C 173.333 15.432,173.090 15.322,172.792 15.263 C 170.716 14.847,170.159 14.809,168.292 14.956 M315.625 14.946 C 315.190 14.986,314.833 15.089,314.833 15.176 C 314.833 15.262,314.645 15.333,314.414 15.333 C 314.184 15.333,313.865 15.404,313.706 15.490 C 313.547 15.577,312.923 15.881,312.320 16.166 C 310.723 16.921,309.167 18.532,309.167 19.430 C 309.167 19.560,309.096 19.667,309.010 19.667 C 308.924 19.667,308.808 20.023,308.752 20.458 C 308.696 20.894,308.578 21.380,308.491 21.539 C 308.395 21.716,308.333 27.498,308.333 36.328 L 308.333 50.827 308.750 50.932 C 308.979 50.989,309.167 51.103,309.167 51.185 C 309.167 51.452,313.990 51.367,314.262 51.095 C 314.463 50.894,314.500 49.311,314.500 40.929 L 314.500 31.000 316.672 31.000 L 318.843 31.000 318.755 35.750 C 318.706 38.362,318.627 42.625,318.578 45.221 C 318.482 50.383,318.517 50.631,319.420 51.099 C 319.931 51.364,323.833 51.440,323.833 51.185 C 323.833 51.103,324.020 50.989,324.247 50.932 C 324.865 50.777,324.850 51.211,324.798 35.000 C 324.749 19.568,324.739 19.307,324.154 18.833 C 324.098 18.787,324.004 18.555,323.946 18.318 C 323.823 17.814,322.261 16.167,321.907 16.167 C 321.775 16.167,321.667 16.098,321.667 16.013 C 321.667 15.929,321.442 15.810,321.167 15.750 C 320.892 15.690,320.667 15.571,320.667 15.487 C 320.667 15.402,320.494 15.333,320.283 15.333 C 320.072 15.333,319.829 15.264,319.742 15.178 C 319.557 14.997,316.779 14.841,315.625 14.946 M379.833 15.500 C 379.833 15.597,379.282 15.667,378.514 15.667 C 377.788 15.667,377.075 15.712,376.930 15.768 C 376.692 15.859,376.667 17.555,376.667 33.256 L 376.667 50.644 377.151 50.989 C 377.657 51.349,378.958 51.469,379.258 51.182 C 379.345 51.099,380.028 51.006,380.775 50.974 C 381.819 50.929,382.214 50.843,382.483 50.599 L 382.833 50.282 382.833 36.480 L 382.833 22.678 383.422 22.089 C 384.456 21.055,385.981 21.445,386.422 22.855 C 386.489 23.072,386.629 23.304,386.731 23.369 C 386.865 23.455,386.917 27.275,386.917 37.119 L 386.917 50.750 387.292 50.915 C 387.498 51.005,387.667 51.136,387.667 51.206 C 387.667 51.598,392.181 51.333,392.632 50.915 L 393.083 50.497 393.083 36.173 C 393.083 24.937,393.038 21.805,392.875 21.642 C 392.760 21.527,392.667 21.148,392.667 20.800 C 392.667 20.452,392.601 20.167,392.521 20.167 C 392.441 20.167,392.328 19.867,392.269 19.500 C 392.211 19.133,392.097 18.833,392.016 18.833 C 391.935 18.833,391.823 18.649,391.766 18.423 C 391.641 17.923,390.154 16.404,389.630 16.240 C 389.421 16.175,389.197 16.038,389.131 15.936 C 388.947 15.647,383.864 15.682,383.684 15.973 C 383.477 16.306,382.773 16.137,382.585 15.708 C 382.409 15.305,379.833 15.110,379.833 15.500 M274.343 15.788 C 274.211 15.840,273.929 16.056,273.718 16.267 L 273.333 16.652 273.333 33.149 C 273.333 43.968,273.391 49.682,273.500 49.750 C 273.592 49.807,273.667 49.964,273.667 50.100 C 273.667 50.887,274.186 51.041,276.445 50.924 C 280.023 50.739,279.821 51.085,279.828 45.125 L 279.833 40.333 280.667 40.333 C 281.125 40.333,281.500 40.408,281.500 40.500 C 281.500 40.592,281.618 40.667,281.762 40.667 C 282.719 40.667,282.995 41.922,282.998 46.304 C 283.000 49.281,283.047 50.071,283.235 50.259 C 283.364 50.388,283.499 50.580,283.534 50.685 C 283.569 50.790,283.990 50.913,284.469 50.959 C 284.948 51.005,285.381 51.108,285.430 51.188 C 285.555 51.390,287.290 51.371,287.417 51.167 C 287.473 51.075,287.729 51.000,287.984 51.000 C 288.240 51.000,288.629 50.843,288.849 50.651 L 289.250 50.302 289.201 45.360 C 289.173 42.507,289.085 40.352,288.993 40.260 C 288.905 40.172,288.833 39.909,288.832 39.675 C 288.832 39.441,288.719 39.035,288.582 38.773 C 288.311 38.253,288.252 37.667,288.470 37.667 C 288.625 37.667,289.333 36.317,289.333 36.023 C 289.333 35.919,289.391 35.833,289.461 35.833 C 289.649 35.833,290.167 34.560,290.167 34.096 C 290.167 33.875,290.241 33.669,290.332 33.639 C 290.422 33.608,290.546 33.096,290.607 32.500 C 290.668 31.904,290.788 31.370,290.875 31.314 C 291.085 31.176,291.087 23.492,290.877 23.354 C 290.789 23.297,290.666 22.800,290.603 22.250 C 290.540 21.700,290.416 21.225,290.328 21.194 C 290.239 21.164,290.167 21.033,290.167 20.904 C 290.167 20.567,289.612 19.333,289.461 19.333 C 289.391 19.333,289.333 19.232,289.333 19.109 C 289.333 18.985,289.176 18.704,288.983 18.484 C 288.790 18.264,288.546 17.968,288.441 17.827 C 288.014 17.252,286.206 16.167,285.677 16.167 C 285.499 16.167,285.307 16.092,285.250 16.000 C 285.121 15.792,280.833 15.774,280.833 15.982 C 280.833 16.296,279.594 16.290,279.186 15.974 C 278.790 15.668,275.016 15.522,274.343 15.788 M141.125 16.149 C 140.745 16.535,140.670 49.750,141.048 50.500 C 141.432 51.262,146.045 51.161,146.774 50.375 C 147.203 49.912,147.410 42.003,147.000 41.750 C 146.908 41.693,146.833 41.332,146.833 40.947 L 146.833 40.248 147.583 40.307 C 147.996 40.340,148.333 40.434,148.333 40.517 C 148.333 40.599,148.896 40.667,149.583 40.667 C 150.271 40.667,150.833 40.602,150.833 40.523 C 150.833 40.444,151.228 40.339,151.711 40.289 C 153.394 40.116,155.928 38.153,156.441 36.625 C 156.495 36.465,156.599 36.333,156.673 36.333 C 156.747 36.333,156.856 36.108,156.917 35.833 C 156.977 35.558,157.093 35.333,157.174 35.333 C 157.255 35.333,157.372 34.958,157.432 34.500 C 157.493 34.042,157.608 33.667,157.688 33.667 C 157.768 33.667,157.833 33.457,157.833 33.200 C 157.833 32.943,157.927 32.640,158.042 32.525 C 158.199 32.368,158.250 31.131,158.250 27.500 C 158.250 23.869,158.199 22.632,158.042 22.475 C 157.927 22.361,157.833 22.094,157.833 21.883 C 157.833 21.673,157.758 21.500,157.667 21.500 C 157.575 21.500,157.499 21.331,157.498 21.125 C 157.496 20.739,156.712 19.067,156.310 18.589 C 155.550 17.688,155.021 17.167,154.867 17.167 C 154.770 17.167,154.588 17.073,154.464 16.958 C 154.048 16.576,153.521 16.341,152.837 16.231 C 152.464 16.172,152.119 16.058,152.070 15.978 C 151.942 15.772,148.500 15.793,148.500 16.000 C 148.500 16.092,148.317 16.167,148.094 16.167 C 147.871 16.167,147.505 16.237,147.280 16.322 C 146.961 16.443,146.796 16.407,146.526 16.155 C 146.027 15.690,141.583 15.685,141.125 16.149 M187.265 15.975 C 187.217 16.054,186.669 16.164,186.047 16.221 C 185.009 16.317,183.189 17.012,183.028 17.375 C 182.997 17.444,182.885 17.502,182.778 17.506 C 182.088 17.525,180.583 19.651,180.397 20.868 C 180.337 21.261,180.219 21.670,180.136 21.777 C 179.928 22.041,179.916 26.343,180.122 26.477 C 180.212 26.536,180.337 26.865,180.400 27.208 C 180.463 27.552,180.579 27.833,180.656 27.833 C 180.734 27.833,180.840 28.004,180.892 28.212 C 180.944 28.420,181.131 28.744,181.306 28.933 C 181.482 29.121,181.678 29.439,181.741 29.638 C 181.804 29.837,181.926 30.000,182.011 30.000 C 182.097 30.000,182.167 30.107,182.167 30.238 C 182.167 30.369,182.336 30.613,182.543 30.780 C 182.749 30.947,183.051 31.290,183.214 31.543 C 183.377 31.797,185.192 33.696,187.248 35.764 C 189.303 37.833,191.031 39.669,191.087 39.846 C 191.143 40.022,191.259 40.167,191.345 40.167 C 191.430 40.167,191.500 40.270,191.500 40.396 C 191.500 40.523,191.612 40.719,191.750 40.833 C 191.887 40.947,192.000 41.182,192.000 41.354 C 192.000 41.526,192.075 41.667,192.167 41.667 C 192.258 41.667,192.333 42.037,192.333 42.490 C 192.333 42.943,192.258 43.360,192.167 43.417 C 192.075 43.473,192.000 43.657,192.000 43.825 C 192.000 43.993,191.887 44.174,191.750 44.227 C 191.612 44.280,191.500 44.458,191.500 44.623 C 191.500 44.812,191.207 45.076,190.708 45.337 C 190.273 45.564,189.892 45.806,189.861 45.875 C 189.778 46.062,188.536 46.026,188.417 45.833 C 188.360 45.742,188.203 45.667,188.067 45.667 C 187.839 45.667,186.996 45.145,186.586 44.750 C 186.149 44.330,185.333 42.906,185.333 42.564 C 185.333 42.437,185.269 42.333,185.191 42.333 C 185.113 42.333,185.004 41.688,184.948 40.898 C 184.815 39.012,184.815 39.012,182.186 39.005 C 179.381 38.998,179.425 38.949,179.557 41.986 C 179.611 43.215,179.732 44.299,179.827 44.394 C 179.922 44.489,180.000 44.777,180.000 45.033 C 180.000 45.290,180.070 45.500,180.156 45.500 C 180.243 45.500,180.364 45.837,180.425 46.250 C 180.487 46.663,180.596 47.000,180.668 47.000 C 180.739 47.000,180.841 47.175,180.895 47.389 C 180.949 47.604,181.247 48.048,181.557 48.378 C 181.868 48.707,182.168 49.096,182.224 49.242 C 182.280 49.388,182.457 49.558,182.618 49.620 C 182.778 49.681,183.061 49.886,183.246 50.074 C 183.704 50.539,184.562 51.000,184.970 51.000 C 185.155 51.000,185.337 51.094,185.375 51.208 C 185.428 51.365,186.237 51.417,188.667 51.417 C 191.096 51.417,191.906 51.365,191.958 51.208 C 191.997 51.094,192.190 50.999,192.389 50.998 C 192.588 50.997,193.088 50.814,193.500 50.590 C 193.912 50.367,194.407 50.111,194.600 50.022 C 195.040 49.819,197.000 47.888,197.000 47.658 C 197.000 47.563,197.150 47.325,197.333 47.128 C 197.517 46.931,197.667 46.653,197.668 46.510 C 197.668 46.367,197.789 46.025,197.935 45.750 C 198.236 45.186,198.302 40.254,198.017 39.708 C 197.933 39.548,197.781 39.101,197.678 38.716 C 197.575 38.330,197.398 37.918,197.285 37.799 C 197.172 37.680,196.992 37.385,196.884 37.142 C 196.695 36.713,196.497 36.473,194.937 34.776 C 193.889 33.638,193.388 33.113,193.135 32.891 C 193.015 32.786,192.729 32.453,192.500 32.151 C 192.271 31.850,191.371 30.878,190.500 29.991 C 189.629 29.104,188.618 28.019,188.252 27.579 C 187.886 27.139,187.380 26.573,187.127 26.319 C 186.874 26.066,186.667 25.784,186.667 25.693 C 186.667 25.602,186.573 25.497,186.458 25.458 C 185.658 25.191,186.421 22.029,187.292 22.006 C 187.406 22.002,187.500 21.934,187.500 21.853 C 187.500 21.634,189.243 21.456,190.157 21.582 C 191.068 21.707,191.667 22.554,191.667 23.717 C 191.667 24.045,191.742 24.360,191.833 24.417 C 191.925 24.473,192.002 24.721,192.005 24.968 C 192.017 25.928,192.390 26.069,195.473 26.272 C 197.079 26.378,197.833 26.202,197.833 25.722 C 197.833 25.600,197.908 25.500,198.000 25.500 C 198.203 25.500,198.226 23.390,198.024 23.265 C 197.946 23.217,197.835 22.727,197.777 22.176 C 197.720 21.626,197.527 20.855,197.350 20.463 C 197.172 20.071,196.978 19.581,196.919 19.375 C 196.859 19.169,196.741 19.000,196.655 19.000 C 196.570 19.000,196.500 18.914,196.500 18.808 C 196.500 18.537,194.863 17.000,194.574 17.000 C 194.441 17.000,194.333 16.925,194.333 16.833 C 194.333 16.742,194.198 16.667,194.033 16.667 C 193.868 16.667,193.650 16.584,193.549 16.482 C 193.447 16.380,192.870 16.258,192.265 16.209 C 191.661 16.161,191.167 16.056,191.167 15.977 C 191.167 15.790,187.381 15.789,187.265 15.975 M239.271 15.951 C 239.206 16.016,238.802 16.110,238.372 16.160 C 237.758 16.231,237.547 16.338,237.378 16.667 C 237.098 17.214,237.253 50.031,237.539 50.621 C 237.717 50.989,237.743 50.991,242.984 51.070 C 245.880 51.113,248.953 51.195,249.813 51.253 C 250.840 51.322,251.437 51.297,251.554 51.179 C 251.653 51.081,251.860 51.000,252.016 51.000 C 252.364 51.000,252.500 50.668,252.500 49.820 C 252.500 49.461,252.575 49.167,252.667 49.167 C 252.758 49.167,252.833 48.759,252.833 48.260 C 252.833 47.761,252.758 47.307,252.667 47.250 C 252.575 47.193,252.500 46.991,252.500 46.800 C 252.500 46.239,252.013 46.011,250.802 46.005 C 250.188 46.002,249.640 45.925,249.583 45.833 C 249.521 45.732,248.304 45.667,246.490 45.667 L 243.500 45.667 243.500 31.327 C 243.500 15.835,243.519 16.167,242.647 16.167 C 242.475 16.167,242.333 16.092,242.333 16.000 C 242.333 15.810,239.457 15.765,239.271 15.951 M344.599 15.975 C 344.550 16.053,344.002 16.163,343.380 16.218 C 342.268 16.317,341.167 16.632,341.167 16.852 C 341.167 16.913,340.973 17.013,340.736 17.072 C 340.499 17.132,340.217 17.251,340.111 17.338 C 340.004 17.424,339.673 17.690,339.375 17.929 C 339.077 18.168,338.833 18.451,338.833 18.558 C 338.833 18.665,338.693 18.841,338.521 18.948 C 338.349 19.055,338.156 19.354,338.091 19.612 C 338.026 19.869,337.903 20.124,337.816 20.178 C 337.729 20.231,337.612 20.663,337.556 21.138 C 337.500 21.612,337.389 22.000,337.310 22.000 C 337.231 22.000,337.167 22.938,337.167 24.083 C 337.167 25.229,337.233 26.167,337.314 26.167 C 337.396 26.167,337.513 26.504,337.575 26.917 C 337.636 27.329,337.752 27.667,337.830 27.667 C 337.909 27.667,338.023 27.892,338.083 28.167 C 338.144 28.442,338.262 28.667,338.347 28.667 C 338.431 28.667,338.500 28.779,338.500 28.917 C 338.500 29.054,338.570 29.167,338.655 29.167 C 338.741 29.167,338.861 29.325,338.922 29.518 C 338.984 29.712,339.172 30.031,339.340 30.227 C 339.877 30.851,340.239 31.294,340.667 31.846 C 340.896 32.142,342.658 33.974,344.583 35.918 C 348.191 39.561,348.608 40.036,349.011 40.958 C 349.141 41.256,349.305 41.500,349.374 41.500 C 349.443 41.500,349.500 41.987,349.500 42.583 C 349.500 43.179,349.443 43.667,349.374 43.667 C 349.305 43.667,349.152 43.884,349.035 44.149 C 348.711 44.881,348.110 45.449,347.525 45.578 C 347.236 45.641,347.000 45.762,347.000 45.847 C 347.000 45.931,346.700 46.000,346.333 46.000 C 345.967 46.000,345.667 45.925,345.667 45.833 C 345.667 45.742,345.522 45.667,345.345 45.667 C 345.168 45.667,344.911 45.554,344.774 45.417 C 344.636 45.279,344.455 45.167,344.371 45.167 C 344.146 45.167,343.500 44.573,343.500 44.367 C 343.500 44.270,343.406 44.088,343.292 43.963 C 342.945 43.584,342.500 42.660,342.500 42.320 C 342.500 42.144,342.433 42.000,342.352 42.000 C 342.270 42.000,342.175 41.440,342.140 40.755 C 342.055 39.060,341.977 39.011,339.417 39.011 C 336.655 39.011,336.741 38.924,336.785 41.702 C 336.804 42.947,336.894 43.960,336.993 44.060 C 337.088 44.155,337.167 44.439,337.167 44.690 C 337.167 44.941,337.232 45.187,337.311 45.236 C 337.391 45.286,337.507 45.644,337.569 46.033 C 337.631 46.422,337.735 46.780,337.800 46.828 C 337.864 46.877,338.067 47.212,338.250 47.573 C 338.631 48.322,340.323 50.167,340.629 50.167 C 340.742 50.167,340.833 50.228,340.833 50.302 C 340.833 50.465,341.914 51.000,342.242 51.000 C 342.369 51.000,342.503 51.094,342.542 51.208 C 342.635 51.487,348.952 51.510,349.131 51.232 C 349.196 51.131,349.540 50.995,349.896 50.929 C 350.559 50.807,351.066 50.574,351.464 50.208 C 351.588 50.094,351.798 50.000,351.929 50.000 C 352.060 50.000,352.167 49.923,352.167 49.828 C 352.167 49.734,352.298 49.607,352.458 49.548 C 352.847 49.404,353.960 48.223,354.087 47.820 C 354.143 47.644,354.259 47.500,354.345 47.500 C 354.430 47.500,354.500 47.387,354.500 47.250 C 354.500 47.112,354.572 47.000,354.659 47.000 C 354.747 47.000,354.870 46.719,354.933 46.375 C 354.996 46.031,355.131 45.696,355.232 45.631 C 355.484 45.469,355.478 39.795,355.226 39.478 C 355.125 39.353,354.993 38.969,354.931 38.625 C 354.869 38.281,354.747 38.000,354.659 38.000 C 354.572 38.000,354.500 37.887,354.500 37.750 C 354.500 37.612,354.425 37.500,354.333 37.500 C 354.242 37.500,354.167 37.399,354.167 37.276 C 354.167 37.152,354.035 36.899,353.875 36.713 C 353.715 36.527,353.283 36.014,352.917 35.574 C 352.550 35.134,352.159 34.694,352.047 34.595 C 351.936 34.497,351.749 34.330,351.631 34.224 C 351.513 34.118,351.117 33.675,350.750 33.240 C 350.383 32.805,349.371 31.715,348.500 30.819 C 347.629 29.922,346.640 28.865,346.302 28.469 C 345.964 28.074,345.327 27.367,344.885 26.899 C 343.449 25.374,343.458 25.392,343.436 24.043 C 343.418 22.861,343.438 22.789,343.917 22.399 C 344.192 22.175,344.524 21.903,344.654 21.795 C 344.797 21.678,345.506 21.596,346.427 21.591 C 348.436 21.581,348.810 22.006,349.118 24.643 C 349.268 25.926,349.654 26.097,352.811 26.275 C 355.098 26.404,355.333 26.208,355.333 24.174 C 355.333 23.437,355.269 22.833,355.190 22.833 C 355.112 22.833,354.999 22.368,354.939 21.799 C 354.880 21.230,354.757 20.690,354.666 20.599 C 354.575 20.508,354.500 20.298,354.500 20.133 C 354.500 19.968,354.433 19.833,354.351 19.833 C 354.270 19.833,354.152 19.631,354.090 19.383 C 354.028 19.136,353.795 18.765,353.572 18.558 C 353.349 18.352,353.167 18.104,353.167 18.008 C 353.167 17.912,353.100 17.833,353.017 17.833 C 352.935 17.833,352.692 17.647,352.476 17.420 C 352.260 17.192,351.952 17.004,351.792 17.003 C 351.631 17.001,351.500 16.936,351.500 16.859 C 351.500 16.632,349.862 16.167,349.064 16.167 C 348.662 16.167,348.333 16.092,348.333 16.000 C 348.333 15.795,344.725 15.771,344.599 15.975 M200.731 16.587 C 200.326 16.992,200.109 20.746,200.461 21.263 C 200.810 21.776,201.743 22.000,203.526 22.000 L 205.333 22.000 205.333 36.262 C 205.333 49.010,205.361 50.552,205.595 50.786 C 206.086 51.277,210.594 50.992,211.108 50.437 L 211.506 50.008 211.429 37.712 C 211.387 30.950,211.306 24.648,211.249 23.708 L 211.145 22.000 213.406 22.000 C 214.802 22.000,215.667 21.936,215.667 21.833 C 215.667 21.742,215.777 21.667,215.911 21.667 C 216.366 21.667,216.500 21.027,216.500 18.844 L 216.500 16.667 214.375 16.666 C 213.206 16.665,211.987 16.597,211.667 16.515 C 211.346 16.432,208.844 16.325,206.106 16.277 L 201.129 16.189 200.731 16.587 M222.750 16.328 C 219.407 16.431,219.216 16.478,219.080 17.224 C 218.866 18.406,219.075 50.439,219.299 50.708 C 219.698 51.189,233.667 51.644,233.667 51.176 C 233.667 51.079,233.768 51.000,233.891 51.000 C 234.516 51.000,234.667 50.455,234.667 48.195 L 234.667 46.000 233.177 46.000 C 232.357 46.000,231.640 45.925,231.583 45.833 C 231.521 45.732,230.276 45.667,228.407 45.667 L 225.333 45.667 225.333 39.000 L 225.333 32.333 229.759 32.333 L 234.184 32.333 234.425 31.755 C 234.716 31.059,234.753 28.372,234.480 27.773 C 234.242 27.251,233.834 27.194,229.130 27.027 C 227.139 26.956,225.477 26.865,225.438 26.824 C 225.399 26.783,225.312 25.617,225.246 24.233 L 225.126 21.716 229.272 21.597 C 234.466 21.448,234.169 21.623,234.161 18.716 C 234.158 17.346,234.089 16.662,233.935 16.458 C 233.697 16.145,230.056 16.102,222.750 16.328 M259.047 16.328 C 256.487 16.403,255.957 16.462,255.672 16.707 C 255.304 17.022,255.125 50.080,255.488 50.653 C 255.811 51.163,269.833 51.684,269.833 51.186 C 269.833 51.096,270.002 50.999,270.208 50.970 C 270.449 50.936,270.602 50.783,270.637 50.542 C 270.666 50.335,270.760 50.167,270.845 50.167 C 271.103 50.167,271.038 46.515,270.775 46.252 C 270.509 45.985,268.916 45.849,264.708 45.735 L 261.667 45.652 261.667 38.993 L 261.667 32.333 265.905 32.333 C 271.119 32.333,270.900 32.500,270.704 28.667 C 270.627 27.152,270.834 27.217,265.417 27.010 C 263.400 26.933,261.656 26.862,261.542 26.852 C 261.385 26.838,261.333 26.201,261.333 24.275 L 261.333 21.717 265.458 21.598 C 267.761 21.532,269.608 21.410,269.639 21.323 C 269.669 21.237,269.801 21.167,269.931 21.167 C 270.060 21.167,270.167 21.054,270.167 20.917 C 270.167 20.779,270.242 20.667,270.333 20.667 C 270.434 20.667,270.500 19.976,270.500 18.927 C 270.500 17.946,270.427 17.141,270.333 17.083 C 270.242 17.027,270.167 16.797,270.167 16.573 L 270.167 16.167 266.125 16.203 C 263.902 16.222,260.717 16.279,259.047 16.328 M294.082 16.601 C 293.196 17.557,293.525 21.667,294.488 21.667 C 294.678 21.667,294.833 21.742,294.833 21.833 C 294.833 21.925,295.096 22.000,295.417 22.000 C 295.737 22.000,296.000 21.925,296.000 21.833 C 296.000 21.742,296.150 21.667,296.333 21.667 C 296.664 21.667,296.667 21.778,296.666 33.625 L 296.666 45.583 295.517 45.583 C 293.746 45.583,293.667 45.703,293.667 48.359 C 293.667 49.675,293.731 50.500,293.833 50.500 C 293.925 50.500,294.000 50.612,294.000 50.750 C 294.000 50.887,294.146 51.000,294.323 51.000 C 294.501 51.000,294.694 51.077,294.752 51.170 C 294.820 51.280,296.548 51.334,299.637 51.323 C 304.749 51.305,305.667 51.175,305.667 50.468 C 305.667 50.302,305.750 50.167,305.851 50.167 C 305.974 50.167,305.998 49.931,305.924 49.458 C 305.863 49.069,305.774 48.233,305.725 47.602 C 305.605 46.024,305.293 45.699,303.833 45.633 L 302.750 45.583 302.707 33.625 L 302.664 21.667 303.879 21.667 C 305.432 21.667,305.611 21.486,305.716 19.806 C 305.758 19.133,305.849 18.372,305.918 18.113 C 305.999 17.811,305.961 17.483,305.813 17.196 C 305.307 16.214,305.547 16.254,299.802 16.202 L 294.496 16.153 294.082 16.601 M358.219 16.334 C 358.019 16.415,357.770 16.640,357.666 16.835 C 357.380 17.368,357.503 44.736,357.792 45.025 C 357.906 45.140,358.000 45.443,358.000 45.700 C 358.000 45.957,358.065 46.167,358.145 46.167 C 358.225 46.167,358.339 46.467,358.397 46.833 C 358.456 47.200,358.578 47.500,358.669 47.500 C 358.759 47.500,358.833 47.652,358.833 47.839 C 358.833 48.025,358.946 48.220,359.083 48.273 C 359.221 48.326,359.333 48.456,359.333 48.561 C 359.333 48.667,359.566 48.940,359.851 49.168 C 360.135 49.397,360.468 49.678,360.591 49.794 C 360.714 49.910,361.043 50.050,361.324 50.106 C 361.604 50.162,361.833 50.274,361.833 50.354 C 361.833 50.434,362.054 50.500,362.323 50.500 C 362.593 50.500,362.860 50.575,362.917 50.667 C 362.973 50.758,363.686 50.833,364.500 50.833 C 365.314 50.833,366.027 50.758,366.083 50.667 C 366.140 50.575,366.363 50.500,366.579 50.500 C 366.795 50.500,366.997 50.434,367.028 50.354 C 367.198 49.905,368.143 49.981,368.196 50.448 L 368.250 50.917 370.910 50.852 C 372.784 50.806,373.634 50.723,373.785 50.572 C 373.958 50.399,374.000 47.042,374.000 33.540 L 374.000 16.723 373.558 16.486 C 372.653 16.002,368.753 16.160,368.252 16.701 L 367.833 17.152 367.833 29.318 C 367.833 38.219,367.885 41.599,368.027 41.910 C 368.171 42.225,368.173 42.434,368.037 42.710 C 367.936 42.915,367.806 43.324,367.748 43.617 C 367.685 43.938,367.515 44.192,367.322 44.254 C 367.145 44.310,367.000 44.426,367.000 44.511 C 367.000 44.597,366.887 44.667,366.750 44.667 C 366.613 44.667,366.500 44.742,366.500 44.833 C 366.500 45.070,365.702 45.040,365.394 44.792 C 363.719 43.443,363.833 44.539,363.833 29.810 C 363.833 17.775,363.813 16.813,363.546 16.502 C 363.234 16.137,359.037 16.005,358.219 16.334 M169.883 20.986 C 170.737 21.351,171.167 21.871,171.167 22.537 C 171.167 22.792,171.242 23.000,171.333 23.000 C 171.430 23.000,171.500 23.528,171.500 24.250 L 171.500 25.500 169.333 25.500 L 167.167 25.500 167.167 24.000 C 167.167 23.111,167.235 22.500,167.333 22.500 C 167.425 22.500,167.500 22.329,167.500 22.120 C 167.500 21.749,167.918 21.275,168.583 20.891 C 169.043 20.627,169.046 20.627,169.883 20.986 M316.909 20.821 C 316.961 20.905,317.218 21.021,317.480 21.079 C 317.809 21.151,318.054 21.375,318.270 21.800 C 318.442 22.139,318.640 22.442,318.708 22.472 C 318.777 22.503,318.833 23.197,318.833 24.014 L 318.833 25.500 316.641 25.500 L 314.450 25.500 314.554 23.793 C 314.611 22.854,314.735 22.061,314.829 22.029 C 314.923 21.998,315.000 21.898,315.000 21.808 C 315.000 21.233,316.640 20.385,316.909 20.821 M150.520 21.458 C 150.908 21.638,151.265 21.974,151.450 22.333 C 151.615 22.654,151.806 22.942,151.875 22.972 C 151.944 23.003,152.000 23.203,152.000 23.417 C 152.000 23.631,152.094 23.837,152.208 23.875 C 152.367 23.928,152.417 24.854,152.417 27.750 C 152.417 30.646,152.367 31.572,152.208 31.625 C 152.094 31.663,152.000 31.913,152.000 32.181 C 152.000 32.448,151.934 32.667,151.854 32.667 C 151.774 32.667,151.661 32.902,151.604 33.190 C 151.513 33.644,151.225 33.994,150.382 34.671 C 150.271 34.760,149.578 34.833,148.840 34.833 C 146.688 34.833,146.833 35.321,146.833 28.106 L 146.833 22.045 147.273 21.606 C 147.823 21.056,149.489 20.980,150.520 21.458 M283.298 21.458 C 283.852 21.816,284.320 22.346,284.328 22.625 C 284.331 22.740,284.404 22.833,284.490 22.833 C 284.576 22.833,284.692 23.190,284.748 23.625 C 284.804 24.060,284.922 24.547,285.009 24.706 C 285.205 25.066,285.220 30.333,285.024 30.333 C 284.946 30.333,284.834 30.839,284.777 31.458 C 284.719 32.076,284.595 32.607,284.502 32.638 C 284.409 32.669,284.333 32.839,284.333 33.015 C 284.333 34.316,280.706 35.563,279.738 34.595 C 279.409 34.267,279.381 21.788,279.708 21.416 C 280.034 21.047,282.708 21.078,283.298 21.458 M105.686 43.287 C 105.655 43.612,102.563 46.754,101.092 47.956 C 100.354 48.559,99.578 49.246,99.369 49.484 C 98.351 50.638,96.057 54.318,95.588 55.548 C 94.735 57.783,92.867 57.690,90.554 55.299 C 89.929 54.652,89.179 53.880,88.888 53.585 C 87.190 51.857,82.232 52.163,79.953 54.135 C 76.348 57.255,73.385 58.291,69.346 57.844 C 67.698 57.662,65.840 57.250,61.167 56.033 C 56.149 54.726,53.554 54.975,50.046 57.102 C 49.081 57.687,48.206 58.171,48.104 58.177 C 48.001 58.182,47.562 58.245,47.129 58.316 C 46.200 58.469,44.874 58.309,42.583 57.768 C 41.667 57.551,40.317 57.246,39.583 57.089 C 36.836 56.503,35.881 56.257,34.583 55.801 C 33.850 55.543,33.212 55.313,33.167 55.291 C 32.924 55.172,32.938 55.389,33.431 59.500 C 33.884 63.279,34.064 64.507,34.158 64.454 C 36.576 63.094,39.044 63.021,46.417 64.089 C 51.330 64.801,52.853 64.839,54.977 64.304 C 57.252 63.731,59.618 63.780,61.750 64.444 C 64.318 65.245,64.836 65.333,66.930 65.333 C 70.321 65.333,75.261 64.593,78.250 63.637 C 81.284 62.667,82.843 62.638,87.500 63.468 C 89.650 63.851,94.527 63.826,97.167 63.419 C 98.943 63.145,99.801 62.899,102.917 61.770 C 104.173 61.315,105.048 61.233,105.759 61.504 L 106.207 61.674 106.083 53.129 C 105.983 46.211,105.812 41.977,105.686 43.287 M104.583 65.527 C 102.038 65.912,101.108 66.167,99.900 66.813 C 96.818 68.460,97.066 68.429,90.583 67.961 C 76.133 66.916,68.107 67.245,64.618 69.025 C 63.970 69.355,53.100 69.289,45.750 68.910 C 44.742 68.858,42.178 68.929,40.053 69.068 C 36.798 69.280,36.053 69.285,35.331 69.098 C 34.491 68.880,34.476 68.883,34.560 69.229 C 34.606 69.424,34.727 70.371,34.828 71.333 C 34.929 72.296,35.080 73.571,35.164 74.167 C 35.248 74.762,35.364 75.687,35.422 76.222 C 35.557 77.463,36.013 78.229,36.943 78.774 L 37.681 79.207 40.632 79.026 C 42.255 78.926,45.046 78.804,46.833 78.753 C 48.621 78.703,51.621 78.590,53.500 78.502 C 58.649 78.262,69.814 77.806,80.083 77.416 C 104.160 76.501,103.824 76.518,104.613 76.159 C 105.669 75.680,106.184 74.896,106.219 73.719 C 106.338 69.688,106.159 65.334,105.875 65.355 C 105.715 65.366,105.133 65.444,104.583 65.527 " stroke="none" fill="#8c633c" fill-rule="evenodd"></path><path id="path4" d="M105.958 42.958 C 105.925 43.027,105.944 45.371,106.001 48.167 L 106.104 53.250 106.135 48.042 C 106.164 43.276,106.140 42.587,105.958 42.958 M84.877 52.453 C 85.131 52.491,85.506 52.490,85.711 52.451 C 85.916 52.411,85.708 52.380,85.250 52.381 C 84.792 52.382,84.624 52.415,84.877 52.453 M106.239 57.667 C 106.239 59.913,106.262 60.831,106.291 59.708 C 106.320 58.585,106.320 56.748,106.291 55.625 C 106.262 54.502,106.239 55.421,106.239 57.667 M32.948 56.796 C 33.001 57.554,33.104 58.417,33.177 58.712 C 33.258 59.040,33.275 58.730,33.219 57.917 C 33.169 57.183,33.066 56.321,32.990 56.000 C 32.901 55.625,32.886 55.910,32.948 56.796 M33.364 60.083 C 33.358 60.542,33.415 61.217,33.490 61.583 L 33.628 62.250 33.635 61.500 C 33.639 61.087,33.582 60.413,33.509 60.000 L 33.375 59.250 33.364 60.083 M33.680 62.768 C 33.657 63.375,33.873 64.667,33.997 64.667 C 34.063 64.667,34.050 64.235,33.970 63.708 C 33.801 62.600,33.699 62.268,33.680 62.768 M81.708 62.948 C 81.869 62.990,82.131 62.990,82.292 62.948 C 82.452 62.906,82.321 62.872,82.000 62.872 C 81.679 62.872,81.548 62.906,81.708 62.948 M40.294 63.451 C 40.501 63.491,40.801 63.490,40.960 63.448 C 41.120 63.406,40.950 63.374,40.583 63.375 C 40.217 63.377,40.086 63.411,40.294 63.451 M51.625 64.784 C 51.831 64.824,52.169 64.824,52.375 64.784 C 52.581 64.745,52.413 64.712,52.000 64.712 C 51.587 64.712,51.419 64.745,51.625 64.784 M106.221 69.936 L 106.240 74.622 105.775 75.232 C 104.741 76.588,107.069 76.390,80.083 77.416 C 69.814 77.806,58.649 78.262,53.500 78.502 C 51.621 78.590,48.621 78.703,46.833 78.753 C 45.046 78.804,42.255 78.926,40.632 79.026 L 37.681 79.207 36.943 78.774 C 36.013 78.229,35.557 77.463,35.422 76.222 C 35.364 75.687,35.248 74.762,35.163 74.167 C 35.079 73.571,34.924 72.258,34.817 71.250 C 34.711 70.242,34.557 69.267,34.474 69.083 C 34.365 68.840,34.350 68.908,34.418 69.333 C 34.503 69.865,34.697 71.799,34.903 74.167 C 35.176 77.301,35.262 77.595,36.167 78.500 C 37.184 79.518,35.981 79.502,54.250 78.746 C 57.642 78.606,61.167 78.461,62.083 78.425 C 63.000 78.389,66.750 78.236,70.417 78.084 C 74.083 77.932,78.021 77.777,79.167 77.740 C 80.313 77.702,84.025 77.557,87.417 77.418 C 90.808 77.278,94.483 77.128,95.583 77.084 C 105.494 76.686,104.875 76.792,106.098 75.294 C 106.541 74.751,106.675 69.752,106.333 66.500 C 106.246 65.667,106.209 66.813,106.221 69.936 M71.792 67.451 C 71.998 67.491,72.335 67.491,72.542 67.451 C 72.748 67.411,72.579 67.379,72.167 67.379 C 71.754 67.379,71.585 67.411,71.792 67.451 M88.208 67.782 C 88.369 67.823,88.631 67.823,88.792 67.782 C 88.952 67.740,88.821 67.705,88.500 67.705 C 88.179 67.705,88.048 67.740,88.208 67.782 M95.128 68.287 C 95.428 68.325,95.878 68.324,96.128 68.286 C 96.378 68.248,96.133 68.217,95.583 68.218 C 95.033 68.219,94.828 68.250,95.128 68.287 M52.708 69.123 C 53.235 69.156,54.098 69.156,54.625 69.123 C 55.152 69.090,54.721 69.063,53.667 69.063 C 52.612 69.063,52.181 69.090,52.708 69.123 M60.044 69.286 C 60.297 69.325,60.672 69.324,60.877 69.284 C 61.082 69.244,60.875 69.213,60.417 69.214 C 59.958 69.216,59.791 69.248,60.044 69.286 " stroke="none" fill="#88a39b" fill-rule="evenodd"></path><path id="path5" d="M70.762 20.887 C 70.817 21.031,71.031 21.080,71.381 21.029 C 71.839 20.961,71.868 20.931,71.583 20.820 C 71.050 20.612,70.668 20.643,70.762 20.887 M72.238 21.459 C 72.716 22.948,72.946 23.350,73.165 23.085 C 73.755 22.375,74.640 23.168,74.930 24.667 C 75.102 25.554,75.310 25.732,75.665 25.294 C 76.441 24.336,77.867 26.738,79.069 31.026 C 79.458 32.412,79.421 35.733,79.000 37.250 C 78.627 38.595,78.593 39.156,78.850 39.721 C 79.116 40.303,78.796 40.833,78.180 40.833 C 77.240 40.833,76.850 38.877,77.458 37.214 C 78.287 34.947,77.757 30.896,76.211 27.684 C 75.876 26.987,75.560 26.281,75.509 26.115 C 75.458 25.949,75.417 26.961,75.417 28.365 C 75.417 31.681,74.927 32.863,72.423 35.583 C 70.787 37.360,70.575 37.985,70.632 40.849 C 70.684 43.458,70.582 43.814,69.834 43.619 C 69.650 43.570,69.542 43.599,69.593 43.682 C 69.751 43.938,70.253 43.850,70.628 43.500 C 70.895 43.252,71.216 43.167,71.888 43.167 C 78.614 43.167,83.827 39.143,83.267 34.383 C 83.169 33.541,83.200 33.405,83.621 32.864 C 83.875 32.537,84.136 32.192,84.200 32.098 C 84.272 31.991,84.492 32.080,84.783 32.333 L 85.250 32.741 84.785 32.245 L 84.319 31.750 84.004 32.164 C 83.632 32.654,83.692 32.706,83.013 31.292 C 81.202 27.522,77.856 24.156,73.667 21.892 C 72.335 21.172,72.125 21.108,72.238 21.459 M71.292 23.917 C 71.234 24.100,71.100 24.587,70.995 25.000 C 70.656 26.329,69.842 27.475,67.587 29.804 C 62.605 34.946,60.888 37.301,60.577 39.417 C 60.495 39.973,60.295 40.432,59.977 40.797 C 59.468 41.382,59.410 41.604,59.667 42.000 C 59.788 42.187,59.829 42.099,59.831 41.651 C 59.836 40.352,60.855 40.153,62.034 41.221 C 63.169 42.248,65.699 43.048,68.333 43.213 L 69.250 43.270 69.250 40.343 C 69.250 36.818,69.244 36.832,71.812 33.935 C 74.013 31.453,74.596 28.184,73.421 24.917 L 73.181 24.250 73.173 25.583 C 73.154 28.546,72.472 29.746,68.671 33.500 C 64.879 37.246,64.365 38.002,63.962 40.426 C 63.588 42.673,62.403 42.432,62.536 40.135 C 62.678 37.679,63.417 36.566,67.767 32.250 C 70.950 29.092,71.439 28.352,71.602 26.455 C 71.702 25.290,71.467 23.364,71.292 23.917 M85.349 33.431 C 85.600 34.389,85.680 34.505,85.571 33.750 C 85.518 33.383,85.408 33.015,85.326 32.931 C 85.245 32.847,85.255 33.072,85.349 33.431 M85.371 36.842 C 85.263 37.422,85.204 37.926,85.240 37.962 C 85.336 38.058,85.702 36.190,85.630 35.973 C 85.596 35.870,85.479 36.261,85.371 36.842 M84.861 38.658 C 84.764 38.938,84.719 39.167,84.763 39.167 C 84.875 39.167,85.190 38.301,85.107 38.218 C 85.069 38.181,84.959 38.378,84.861 38.658 M82.920 41.389 C 82.188 42.137,81.888 42.513,82.253 42.224 C 82.873 41.732,83.315 41.283,84.072 40.375 C 84.667 39.662,84.245 40.033,82.920 41.389 M63.333 44.667 C 63.471 44.756,63.696 44.828,63.833 44.828 C 64.056 44.828,64.056 44.810,63.833 44.667 C 63.696 44.578,63.471 44.505,63.333 44.505 C 63.111 44.505,63.111 44.523,63.333 44.667 M76.750 44.667 L 76.417 44.810 76.750 44.819 C 76.933 44.824,77.196 44.756,77.333 44.667 C 77.665 44.453,77.248 44.453,76.750 44.667 M65.000 45.167 C 65.229 45.240,65.567 45.300,65.750 45.300 C 66.014 45.300,65.997 45.272,65.667 45.167 C 65.438 45.093,65.100 45.033,64.917 45.033 C 64.653 45.033,64.670 45.061,65.000 45.167 M74.333 45.167 L 73.917 45.300 74.333 45.297 C 74.563 45.295,74.975 45.237,75.250 45.167 L 75.750 45.039 75.250 45.036 C 74.975 45.035,74.563 45.093,74.333 45.167 M66.927 45.522 C 67.599 45.666,71.934 45.674,72.733 45.532 C 73.091 45.469,71.821 45.417,69.911 45.417 C 68.001 45.417,66.658 45.464,66.927 45.522 M81.795 67.454 C 82.094 67.491,82.544 67.490,82.795 67.452 C 83.045 67.414,82.800 67.384,82.250 67.385 C 81.700 67.386,81.495 67.417,81.795 67.454 M43.625 68.789 C 44.015 68.824,44.652 68.824,45.042 68.789 C 45.431 68.754,45.112 68.725,44.333 68.725 C 43.554 68.725,43.235 68.754,43.625 68.789 M60.044 69.120 C 60.297 69.158,60.672 69.157,60.877 69.117 C 61.082 69.078,60.875 69.046,60.417 69.048 C 59.958 69.049,59.791 69.081,60.044 69.120 " stroke="none" fill="#ffa3be" fill-rule="evenodd"></path></g></svg>